999
DXF file: C:\inetpub\wwwroot\eng-serve\buildlog\documents\b17017_rev_1.dxf
999
Pro/ENGINEER 2010180 by Parametric Technology Corporation
  0
SECTION
  2
HEADER
  9
$ACADVER
  1
AC1015
  9
$DWGCODEPAGE
  3
ANSI_1252
  9
$EXTMAX
 10
17.0
 20
11.0
 30
0.0
  9
$EXTMIN
 10
0.0
 20
0.0
 30
0.0
  9
$LIMMIN
 10
0.0
 20
0.0
  9
$LIMMAX
 10
17.0
 20
11.0
  9
$VIEWCTR
 10
8.5
 20
5.5
  9
$VIEWSIZE
 40
11.0
  9
$CLAYER
  8
0
  9
$LTSCALE
 40
0.935
  9
$CELTYPE
  6
BYLAYER
  9
$DIMSCALE
 40
1.0
  9
$DIMASZ
 40
0.1875
  9
$DIMEXO
 40
0.10625
  9
$DIMDLI
 40
0.646
  9
$DIMEXE
 40
0.306
  9
$DIMCEN
 40
0.153
  9
$DIMLFAC
 40
1.0
  9
$DIMBLK
  1
_FILLED
  9
$DIMTXT
 40
0.15625
  9
$DIMTOL
 70
0
  9
$DIMLIM
 70
0
  9
$DIMTFAC
 40
1.0
  9
$PDMODE
 70
3
  9
$PDSIZE
 40
0.3125
  9
$HANDSEED
  5
368
  9
$TILEMODE
 70
1
  9
$MEASUREMENT
 70
0
  9
$INSUNITS
 70
1
  0
ENDSEC
  0
SECTION
  2
CLASSES
  0
CLASS
  1
ACDBDICTIONARYWDFLT
  2
AcDbDictionaryWithDefault
  3
AutoCAD 2000
 90
0
280
0
281
0
  0
CLASS
  1
ACDBPLACEHOLDER
  2
AcDbPlaceHolder
  3
AutoCAD 2000
 90
0
280
0
281
0
  0
CLASS
  1
LAYOUT
  2
AcDbLayout
  3
AutoCAD 2000
 90
0
280
0
281
0
  0
CLASS
  1
RASTERVARIABLES
  2
AcDbRasterVariables
  3
ISM
 90
0
280
0
281
0
  0
CLASS
  1
IMAGEDEF
  2
AcDbRasterImageDef
  3
ISM
 90
0
280
0
281
0
  0
CLASS
  1
IMAGEDEF_REACTOR
  2
AcDbRasterImageDefReactor
  3
ISM
 90
0
280
0
281
0
  0
CLASS
  1
IMAGE
  2
AcDbRasterImage
  3
ISM
 90
127
280
0
281
1
  0
ENDSEC
  0
SECTION
  2
TABLES
  0
TABLE
  2
VPORT
  5
8
100
AcDbSymbolTable
 70
2
  0
VPORT
  5
1F4
100
AcDbSymbolTableRecord
100
AcDbViewportTableRecord
  2
*ACTIVE
 70
0
 10
0.0
 20
0.0
 11
1.0
 21
1.0
 12
8.5
 22
5.5
 13
0.0
 23
0.0
 14
1.0
 24
1.0
 15
0.0
 25
0.0
 16
0.0
 26
0.0
 36
1.0
 17
0.0
 27
0.0
 37
0.0
 40
11.0
 41
1.5454545455
 42
50.0
 43
0.0
 44
0.0
 50
0.0
 51
0.0
 71
0
 72
100
 73
1
 74
1
 75
0
 76
0
 77
0
 78
0
  0
ENDTAB
  0
TABLE
  2
LTYPE
  5
5
100
AcDbSymbolTable
 70
6
  0
LTYPE
  5
14
100
AcDbSymbolTableRecord
100
AcDbLinetypeTableRecord
  2
BYBLOCK
 70
0
  3

 72
65
 73
0
 40
0.0
  0
LTYPE
  5
15
100
AcDbSymbolTableRecord
100
AcDbLinetypeTableRecord
  2
BYLAYER
 70
0
  3

 72
65
 73
0
 40
0.0
  0
LTYPE
  5
16
100
AcDbSymbolTableRecord
100
AcDbLinetypeTableRecord
  2
CONTINUOUS
 70
64
  3
Solid line
 72
65
 73
0
 40
0.0
  0
LTYPE
  5
1F5
100
AcDbSymbolTableRecord
100
AcDbLinetypeTableRecord
  2
CENTER
 70
64
  3
____ _ ____ _ ____ _ ____ _ ____ _ ____ _ ____
 72
65
 73
4
 40
0.6
 49
0.375
 74
0
 49
-0.075
 74
0
 49
0.075
 74
0
 49
-0.075
 74
0
  0
LTYPE
  5
1F6
100
AcDbSymbolTableRecord
100
AcDbLinetypeTableRecord
  2
HIDDEN
 70
64
  3
- - - - - - - - - - - - - - - - - - - -
 72
65
 73
2
 40
0.2
 49
0.1
 74
0
 49
-0.1
 74
0
  0
LTYPE
  5
1F7
100
AcDbSymbolTableRecord
100
AcDbLinetypeTableRecord
  2
PHANTOM
 70
64
  3
_____ _ _ _____ _ _ _____ _ _ _____
 72
65
 73
6
 40
0.8
 49
0.45
 74
0
 49
-0.05
 74
0
 49
0.1
 74
0
 49
-0.05
 74
0
 49
0.1
 74
0
 49
-0.05
 74
0
  0
LTYPE
  5
1F8
100
AcDbSymbolTableRecord
100
AcDbLinetypeTableRecord
  2
DOT
 70
64
  3
. . . . . . . . . . . . . . . . . . . .
 72
65
 73
2
 40
0.2
 49
0.1
 74
0
 49
-0.1
 74
0
  0
LTYPE
  5
1F9
100
AcDbSymbolTableRecord
100
AcDbLinetypeTableRecord
  2
DASHED
 70
64
  3
- - - - - - - - - - - - - - - - - - - -
 72
65
 73
2
 40
0.2
 49
0.1
 74
0
 49
-0.1
 74
0
  0
ENDTAB
  0
TABLE
  2
LAYER
  5
2
100
AcDbSymbolTable
 70
36
  0
LAYER
  5
10
100
AcDbSymbolTableRecord
100
AcDbLayerTableRecord
  2
0
 70
0
 62
7
  6
CONTINUOUS
370
-3
390
F
  0
LAYER
  5
1FA
100
AcDbSymbolTableRecord
100
AcDbLayerTableRecord
  2
DEFAULT_1
 70
0
 62
7
  6
CENTER
370
-3
390
F
  0
LAYER
  5
1FB
100
AcDbSymbolTableRecord
100
AcDbLayerTableRecord
  2
DEFAULT_2
 70
0
 62
8
  6
HIDDEN
370
-3
390
F
  0
LAYER
  5
1FC
100
AcDbSymbolTableRecord
100
AcDbLayerTableRecord
  2
DEFAULT_3
 70
0
 62
7
  6
PHANTOM
370
-3
390
F
  0
LAYER
  5
1FD
100
AcDbSymbolTableRecord
100
AcDbLayerTableRecord
  2
01___PRT_ALL_DTM_PLN
 70
0
 62
7
  6
CONTINUOUS
370
-3
390
F
  0
LAYER
  5
1FE
100
AcDbSymbolTableRecord
100
AcDbLayerTableRecord
  2
01___PRT_DEF_DTM_PLN
 70
0
 62
7
  6
CONTINUOUS
370
-3
390
F
  0
LAYER
  5
1FF
100
AcDbSymbolTableRecord
100
AcDbLayerTableRecord
  2
02___PRT_ALL_AXES
 70
0
 62
7
  6
CONTINUOUS
370
-3
390
F
  0
LAYER
  5
200
100
AcDbSymbolTableRecord
100
AcDbLayerTableRecord
  2
03___PRT_ALL_CURVES
 70
0
 62
7
  6
CONTINUOUS
370
-3
390
F
  0
LAYER
  5
201
100
AcDbSymbolTableRecord
100
AcDbLayerTableRecord
  2
04___PRT_ALL_DTM_PNT
 70
0
 62
7
  6
CONTINUOUS
370
-3
390
F
  0
LAYER
  5
202
100
AcDbSymbolTableRecord
100
AcDbLayerTableRecord
  2
05___PRT_ALL_DTM_CSYS
 70
0
 62
7
  6
CONTINUOUS
370
-3
390
F
  0
LAYER
  5
203
100
AcDbSymbolTableRecord
100
AcDbLayerTableRecord
  2
05___PRT_DEF_DTM_CSYS
 70
0
 62
7
  6
CONTINUOUS
370
-3
390
F
  0
LAYER
  5
204
100
AcDbSymbolTableRecord
100
AcDbLayerTableRecord
  2
06___PRT_ALL_SURFS
 70
0
 62
7
  6
CONTINUOUS
370
-3
390
F
  0
LAYER
  5
205
100
AcDbSymbolTableRecord
100
AcDbLayerTableRecord
  2
BALLOONS
 70
0
 62
7
  6
CONTINUOUS
370
-3
390
F
  0
LAYER
  5
206
100
AcDbSymbolTableRecord
100
AcDbLayerTableRecord
  2
DATUM_PLANES
 70
0
 62
7
  6
CONTINUOUS
370
-3
390
F
  0
ENDTAB
  0
TABLE
  2
STYLE
  5
3
100
AcDbSymbolTable
 70
1
  0
STYLE
  5
11
100
AcDbSymbolTableRecord
100
AcDbTextStyleTableRecord
  2
STANDARD
 70
0
 40
0.0
 41
1.0
 50
0.0
 71
0
 42
0.2
  3
veramono.ttf
  4

  0
STYLE
  5
207
100
AcDbSymbolTableRecord
100
AcDbTextStyleTableRecord
  2
TEXTSTYLE_1
 70
0
 40
0.0
 41
0.8
 50
0.0
 71
0
 42
0.2
  3
gdt
  4

  0
STYLE
  5
208
100
AcDbSymbolTableRecord
100
AcDbTextStyleTableRecord
  2
TEXTSTYLE_2
 70
0
 40
0.0
 41
1.0
 50
0.0
 71
0
 42
0.2
  3
veramono.ttf
  4

  0
STYLE
  5
209
100
AcDbSymbolTableRecord
100
AcDbTextStyleTableRecord
  2
TEXTSTYLE_3
 70
0
 40
0.0
 41
1.0
 50
0.0
 71
0
 42
0.2
  3
veramono.ttf
  4

  0
STYLE
  5
20A
100
AcDbSymbolTableRecord
100
AcDbTextStyleTableRecord
  2
TEXTSTYLE_4
 70
0
 40
0.0
 41
1.0
 50
0.0
 71
0
 42
0.2
  3
veramono.ttf
  4

  0
STYLE
  5
20B
100
AcDbSymbolTableRecord
100
AcDbTextStyleTableRecord
  2
TEXTSTYLE_5
 70
0
 40
0.0
 41
1.0
 50
0.0
 71
0
 42
0.2
  3
veramono.ttf
  4

  0
ENDTAB
  0
TABLE
  2
VIEW
  5
6
100
AcDbSymbolTable
 70
0
  0
ENDTAB
  0
TABLE
  2
UCS
  5
7
100
AcDbSymbolTable
 70
0
  0
ENDTAB
  0
TABLE
  2
APPID
  5
9
100
AcDbSymbolTable
 70
1
  0
APPID
  5
20C
100
AcDbSymbolTableRecord
100
AcDbRegAppTableRecord
  2
ACAD
 70
0
  0
ENDTAB
  0
TABLE
  2
BLOCK_RECORD
  5
1
100
AcDbSymbolTable
 70
0
  0
BLOCK_RECORD
  5
20D
100
AcDbSymbolTableRecord
100
AcDbBlockTableRecord
  2
*Model_Space
  0
BLOCK_RECORD
  5
20E
100
AcDbSymbolTableRecord
100
AcDbBlockTableRecord
  2
*Paper_Space
  0
BLOCK_RECORD
  5
20F
100
AcDbSymbolTableRecord
100
AcDbBlockTableRecord
  2
_FILLED
  0
BLOCK_RECORD
  5
210
100
AcDbSymbolTableRecord
100
AcDbBlockTableRecord
  2
*D0
  0
BLOCK_RECORD
  5
211
100
AcDbSymbolTableRecord
100
AcDbBlockTableRecord
  2
*D1
  0
BLOCK_RECORD
  5
212
100
AcDbSymbolTableRecord
100
AcDbBlockTableRecord
  2
*D2
  0
BLOCK_RECORD
  5
213
100
AcDbSymbolTableRecord
100
AcDbBlockTableRecord
  2
*D3
  0
BLOCK_RECORD
  5
214
100
AcDbSymbolTableRecord
100
AcDbBlockTableRecord
  2
*D4
  0
BLOCK_RECORD
  5
215
100
AcDbSymbolTableRecord
100
AcDbBlockTableRecord
  2
*D5
  0
BLOCK_RECORD
  5
216
100
AcDbSymbolTableRecord
100
AcDbBlockTableRecord
  2
*D6
  0
BLOCK_RECORD
  5
217
100
AcDbSymbolTableRecord
100
AcDbBlockTableRecord
  2
*D7
  0
BLOCK_RECORD
  5
218
100
AcDbSymbolTableRecord
100
AcDbBlockTableRecord
  2
*D8
  0
BLOCK_RECORD
  5
219
100
AcDbSymbolTableRecord
100
AcDbBlockTableRecord
  2
*D9
  0
BLOCK_RECORD
  5
21A
100
AcDbSymbolTableRecord
100
AcDbBlockTableRecord
  2
*D10
  0
BLOCK_RECORD
  5
21B
100
AcDbSymbolTableRecord
100
AcDbBlockTableRecord
  2
*D11
  0
BLOCK_RECORD
  5
21C
100
AcDbSymbolTableRecord
100
AcDbBlockTableRecord
  2
*D12
  0
BLOCK_RECORD
  5
21D
100
AcDbSymbolTableRecord
100
AcDbBlockTableRecord
  2
*D13
  0
BLOCK_RECORD
  5
21E
100
AcDbSymbolTableRecord
100
AcDbBlockTableRecord
  2
*D14
  0
BLOCK_RECORD
  5
21F
100
AcDbSymbolTableRecord
100
AcDbBlockTableRecord
  2
*D15
  0
BLOCK_RECORD
  5
220
100
AcDbSymbolTableRecord
100
AcDbBlockTableRecord
  2
*D16
  0
BLOCK_RECORD
  5
221
100
AcDbSymbolTableRecord
100
AcDbBlockTableRecord
  2
*D17
  0
BLOCK_RECORD
  5
222
100
AcDbSymbolTableRecord
100
AcDbBlockTableRecord
  2
*D18
  0
BLOCK_RECORD
  5
223
100
AcDbSymbolTableRecord
100
AcDbBlockTableRecord
  2
*D19
  0
BLOCK_RECORD
  5
224
100
AcDbSymbolTableRecord
100
AcDbBlockTableRecord
  2
*D20
  0
BLOCK_RECORD
  5
225
100
AcDbSymbolTableRecord
100
AcDbBlockTableRecord
  2
*D21
  0
BLOCK_RECORD
  5
226
100
AcDbSymbolTableRecord
100
AcDbBlockTableRecord
  2
*D22
  0
BLOCK_RECORD
  5
227
100
AcDbSymbolTableRecord
100
AcDbBlockTableRecord
  2
*D23
  0
BLOCK_RECORD
  5
228
100
AcDbSymbolTableRecord
100
AcDbBlockTableRecord
  2
*D24
  0
BLOCK_RECORD
  5
229
100
AcDbSymbolTableRecord
100
AcDbBlockTableRecord
  2
*D25
  0
BLOCK_RECORD
  5
22A
100
AcDbSymbolTableRecord
100
AcDbBlockTableRecord
  2
*D26
  0
ENDTAB
  0
TABLE
  2
DIMSTYLE
  5
A
100
AcDbSymbolTable
 70
1
100
AcDbDimStyleTable
 71
0
  0
DIMSTYLE
105
22B
100
AcDbSymbolTableRecord
100
AcDbDimStyleTableRecord
  2
STANDARD
 70
0
  3

  4

 40
1.0
 41
0.1875
 42
0.0625
 43
0.38
 44
0.18
 45
0.0
 46
0.0
 47
0.001
 48
0.001
140
0.15625
141
0.09
142
0.0
143
25.4
144
1.0
145
0.0
146
1.0
147
0.09
 71
0.0
 72
0.0
 73
1
 74
1
 75
0
 76
0
 77
0
 78
4
170
0
171
2
172
0
173
0
174
0
175
0
176
0
177
0
178
0
270
2
271
3
272
3
273
2
274
2
275
0
280
0
281
0
282
0
283
1
284
4
285
0
286
0
287
3
288
0
340
11
341
20F
342
20F
343
20F
344
20F
  0
DIMSTYLE
105
22C
100
AcDbSymbolTableRecord
100
AcDbDimStyleTableRecord
  2
DIMSTYLE_1
 70
0
  3

  4

 40
1.0
 41
0.1875
 42
0.0625
 43
0.38
 44
0.18
 45
0.0
 46
0.0
 47
0.0
 48
0.0
140
0.15625
141
0.09
142
0.0
143
25.4
144
1.0
145
0.0
146
1.0
147
0.09
 71
0.0
 72
0.0
 73
1
 74
1
 75
0
 76
0
 77
0
 78
4
170
0
171
2
172
0
173
0
174
0
175
0
176
0
177
0
178
0
270
2
271
3
272
3
273
2
274
2
275
0
280
0
281
0
282
0
283
1
284
4
285
0
286
0
287
3
288
0
340
11
341
20F
342
20F
343
20F
344
20F
  0
DIMSTYLE
105
22D
100
AcDbSymbolTableRecord
100
AcDbDimStyleTableRecord
  2
DIMSTYLE_2
 70
0
  3

  4

 40
1.0
 41
0.1875
 42
0.0625
 43
0.38
 44
0.18
 45
0.0
 46
0.0
 47
0.0
 48
0.0
140
0.15625
141
0.09
142
0.0
143
25.4
144
1.0
145
0.0
146
1.0
147
0.09
 71
0.0
 72
0.0
 73
1
 74
1
 75
0
 76
0
 77
0
 78
4
170
0
171
2
172
0
173
0
174
0
175
0
176
0
177
0
178
0
270
2
271
3
272
3
273
2
274
2
275
0
280
0
281
0
282
0
283
1
284
4
285
0
286
0
287
3
288
0
340
11
341
20F
342
20F
343
20F
344
20F
  0
DIMSTYLE
105
22E
100
AcDbSymbolTableRecord
100
AcDbDimStyleTableRecord
  2
DIMSTYLE_3
 70
0
  3

  4

 40
1.0
 41
0.1875
 42
0.0625
 43
0.38
 44
0.18
 45
0.0
 46
0.0
 47
0.0
 48
0.0
140
0.15625
141
0.09
142
0.0
143
25.4
144
1.0
145
0.0
146
1.0
147
0.09
 71
0.0
 72
0.0
 73
1
 74
1
 75
0
 76
0
 77
0
 78
4
170
0
171
2
172
0
173
0
174
0
175
0
176
0
177
0
178
0
270
2
271
3
272
3
273
2
274
2
275
0
280
0
281
0
282
0
283
1
284
4
285
0
286
0
287
3
288
0
340
11
341
20F
342
20F
343
20F
344
20F
  0
ENDTAB
  0
ENDSEC
  0
SECTION
  2
BLOCKS
  0
BLOCK
  5
20
100
AcDbEntity
  8
0
100
AcDbBlockBegin
  2
*Model_Space
 70
0
 10
0.0
 20
0.0
 30
0.0
  3
*Model_Space
  1

  0
ENDBLK
  5
21
100
AcDbEntity
  8
0
100
AcDbBlockEnd
  0
BLOCK
  5
1C
100
AcDbEntity
  8
0
100
AcDbBlockBegin
  2
*Paper_Space
 70
0
 10
0.0
 20
0.0
 30
0.0
  3
*Paper_Space
  1

  0
ENDBLK
  5
1D
100
AcDbEntity
  8
0
100
AcDbBlockEnd
  0
BLOCK
  5
22F
100
AcDbEntity
  8
0
100
AcDbBlockBegin
  2
_FILLED
 70
64
 10
0.0
 20
0.0
  3
_FILLED
  1

  0
SOLID
  5
230
100
AcDbEntity
  8
0
  6
BYBLOCK
 62
0
100
AcDbTrace
 10
0.0
 20
0.0
 11
-1.0
 21
0.1666666667
 12
-1.0
 22
-0.1666666667
 13
-1.0
 23
-0.1666666667
  0
ENDBLK
  5
231
100
AcDbEntity
  8
0
  6
BYBLOCK
 62
0
100
AcDbBlockEnd
  0
BLOCK
  5
232
100
AcDbEntity
  8
0
100
AcDbBlockBegin
 62
2
  6
CONTINUOUS
  2
*D0
 70
65
 10
0.0
 20
0.0
  3
*D0
  1

  0
MTEXT
  5
233
100
AcDbEntity
  8
0
100
AcDbMText
 62
2
  6
CONTINUOUS
  7
STANDARD
 71
3
 72
1
 10
5.4896822377
 20
5.59436193
 30
0.0
 11
1.0
 21
0.0
 31
0.0
 44
0.9
  1
20
 40
0.15625
 41
0.2586996337
  0
LINE
  5
234
100
AcDbEntity
  8
0
100
AcDbLine
 62
2
  6
CONTINUOUS
 10
6.0840705632
 20
5.51623693
 11
5.5678072377
 21
5.51623693
  0
ENDBLK
  5
235
100
AcDbEntity
  8
0
  6
BYBLOCK
 62
0
100
AcDbBlockEnd
  0
BLOCK
  5
236
100
AcDbEntity
  8
0
100
AcDbBlockBegin
 62
2
  6
CONTINUOUS
  2
*D1
 70
65
 10
0.0
 20
0.0
  3
*D1
  1

  0
MTEXT
  5
237
100
AcDbEntity
  8
0
100
AcDbMText
 62
2
  6
CONTINUOUS
  7
STANDARD
 71
1
 72
1
 10
9.6817478035
 20
5.2006611426
 30
0.0
 11
1.0
 21
0.0
 31
0.0
 44
0.9
  1
10
 40
0.15625
 41
0.2586996337
  0
LINE
  5
238
100
AcDbEntity
  8
0
100
AcDbLine
 62
2
  6
CONTINUOUS
 10
8.839976075
 20
5.1225361426
 11
9.6036228035
 21
5.1225361426
  0
ENDBLK
  5
239
100
AcDbEntity
  8
0
  6
BYBLOCK
 62
0
100
AcDbBlockEnd
  0
BLOCK
  5
23A
100
AcDbEntity
  8
0
100
AcDbBlockBegin
 62
2
  6
CONTINUOUS
  2
*D2
 70
65
 10
0.0
 20
0.0
  3
*D2
  1

  0
MTEXT
  5
23B
100
AcDbEntity
  8
0
100
AcDbMText
 62
2
  6
CONTINUOUS
  7
STANDARD
 71
3
 72
1
 10
5.4896822377
 20
5.9880627174
 30
0.0
 11
1.0
 21
0.0
 31
0.0
 44
0.9
  1
30
 40
0.15625
 41
0.2586996337
  0
LINE
  5
23C
100
AcDbEntity
  8
0
100
AcDbLine
 62
2
  6
CONTINUOUS
 10
6.3527713506
 20
5.9099377174
 11
5.5678072377
 21
5.9099377174
  0
ENDBLK
  5
23D
100
AcDbEntity
  8
0
  6
BYBLOCK
 62
0
100
AcDbBlockEnd
  0
BLOCK
  5
23E
100
AcDbEntity
  8
0
100
AcDbBlockBegin
 62
2
  6
CONTINUOUS
  2
*D3
 70
65
 10
0.0
 20
0.0
  3
*D3
  1

  0
MTEXT
  5
23F
100
AcDbEntity
  8
0
100
AcDbMText
 62
2
  6
CONTINUOUS
  7
STANDARD
 71
3
 72
1
 10
5.4896822377
 20
6.7164091741
 30
0.0
 11
1.0
 21
0.0
 31
0.0
 44
0.9
  1
48.5
 40
0.15625
 41
0.5173992674
  0
LINE
  5
240
100
AcDbEntity
  8
0
100
AcDbLine
 62
2
  6
CONTINUOUS
 10
6.3626138702
 20
6.6382841741
 11
5.5678072377
 21
6.6382841741
  0
ENDBLK
  5
241
100
AcDbEntity
  8
0
  6
BYBLOCK
 62
0
100
AcDbBlockEnd
  0
BLOCK
  5
242
100
AcDbEntity
  8
0
100
AcDbBlockBegin
 62
2
  6
CONTINUOUS
  2
*D4
 70
65
 10
0.0
 20
0.0
  3
*D4
  1

  0
MTEXT
  5
243
100
AcDbEntity
  8
0
100
AcDbMText
 62
2
  6
CONTINUOUS
  7
STANDARD
 71
3
 72
1
 10
5.4896822377
 20
7.3266453946
 30
0.0
 11
1.0
 21
0.0
 31
0.0
 44
0.9
  1
64
 40
0.15625
 41
0.2586996337
  0
LINE
  5
244
100
AcDbEntity
  8
0
100
AcDbLine
 62
2
  6
CONTINUOUS
 10
7.3914102629
 20
7.2485203946
 11
5.5678072377
 21
7.2485203946
  0
ENDBLK
  5
245
100
AcDbEntity
  8
0
  6
BYBLOCK
 62
0
100
AcDbBlockEnd
  0
BLOCK
  5
246
100
AcDbEntity
  8
0
100
AcDbBlockBegin
 62
2
  6
CONTINUOUS
  2
*D5
 70
65
 10
0.0
 20
0.0
  3
*D5
  1

  0
MTEXT
  5
247
100
AcDbEntity
  8
0
100
AcDbMText
 62
2
  6
CONTINUOUS
  7
STANDARD
 71
3
 72
1
 10
5.4896822377
 20
7.9368816151
 30
0.0
 11
1.0
 21
0.0
 31
0.0
 44
0.9
  1
79.5
 40
0.15625
 41
0.5173992674
  0
LINE
  5
248
100
AcDbEntity
  8
0
100
AcDbLine
 62
2
  6
CONTINUOUS
 10
7.9293262016
 20
7.8587566151
 11
5.5678072377
 21
7.8587566151
  0
ENDBLK
  5
249
100
AcDbEntity
  8
0
  6
BYBLOCK
 62
0
100
AcDbBlockEnd
  0
BLOCK
  5
24A
100
AcDbEntity
  8
0
100
AcDbBlockBegin
 62
2
  6
CONTINUOUS
  2
*D6
 70
65
 10
0.0
 20
0.0
  3
*D6
  1

  0
MTEXT
  5
24B
100
AcDbEntity
  8
0
100
AcDbMText
 62
2
  6
CONTINUOUS
  7
STANDARD
 71
3
 72
1
 10
5.4896822377
 20
8.3502674419
 30
0.0
 11
1.0
 21
0.0
 31
0.0
 44
0.9
  1
90
 40
0.15625
 41
0.2586996337
  0
LINE
  5
24C
100
AcDbEntity
  8
0
100
AcDbLine
 62
2
  6
CONTINUOUS
 10
6.0840705632
 20
8.2721424419
 11
5.5678072377
 21
8.2721424419
  0
ENDBLK
  5
24D
100
AcDbEntity
  8
0
  6
BYBLOCK
 62
0
100
AcDbBlockEnd
  0
BLOCK
  5
24E
100
AcDbEntity
  8
0
100
AcDbBlockBegin
 62
2
  6
CONTINUOUS
  2
*D7
 70
65
 10
0.0
 20
0.0
  3
*D7
  1

  0
MTEXT
  5
24F
100
AcDbEntity
  8
0
100
AcDbMText
 62
2
  6
CONTINUOUS
  7
STANDARD
 71
3
 72
1
 10
5.4896822377
 20
4.8069603552
 30
0.0
 11
1.0
 21
0.0
 31
0.0
 44
0.9
  1
0
 40
0.15625
 41
0.1293498168
  0
LINE
  5
250
100
AcDbEntity
  8
0
100
AcDbLine
 62
2
  6
CONTINUOUS
 10
6.871472138
 20
4.7288353552
 11
5.5678072377
 21
4.7288353552
  0
ENDBLK
  5
251
100
AcDbEntity
  8
0
  6
BYBLOCK
 62
0
100
AcDbBlockEnd
  0
BLOCK
  5
252
100
AcDbEntity
  8
0
100
AcDbBlockBegin
 62
2
  6
CONTINUOUS
  2
*D8
 70
65
 10
0.0
 20
0.0
  3
*D8
  1

  0
MTEXT
  5
253
100
AcDbEntity
  8
0
100
AcDbMText
 62
2
  6
CONTINUOUS
  7
STANDARD
 71
3
 72
1
 10
6.3371463506
 20
4.2719707542
 30
0.0
 11
0.0
 21
1.0
 31
0.0
 44
0.9
  1
10
 40
0.15625
 41
0.2586996337
  0
LINE
  5
254
100
AcDbEntity
  8
0
100
AcDbLine
 62
2
  6
CONTINUOUS
 10
6.4152713506
 20
5.8474377174
 11
6.4152713506
 21
4.3500957542
  0
ENDBLK
  5
255
100
AcDbEntity
  8
0
  6
BYBLOCK
 62
0
100
AcDbBlockEnd
  0
BLOCK
  5
256
100
AcDbEntity
  8
0
100
AcDbBlockBegin
 62
2
  6
CONTINUOUS
  2
*D9
 70
65
 10
0.0
 20
0.0
  3
*D9
  1

  0
MTEXT
  5
257
100
AcDbEntity
  8
0
100
AcDbMText
 62
2
  6
CONTINUOUS
  7
STANDARD
 71
3
 72
1
 10
6.730847138
 20
4.2719707542
 30
0.0
 11
0.0
 21
1.0
 31
0.0
 44
0.9
  1
20
 40
0.15625
 41
0.2586996337
  0
LINE
  5
258
100
AcDbEntity
  8
0
100
AcDbLine
 62
2
  6
CONTINUOUS
 10
6.808972138
 20
4.7913353552
 11
6.808972138
 21
4.3500957542
  0
ENDBLK
  5
259
100
AcDbEntity
  8
0
  6
BYBLOCK
 62
0
100
AcDbBlockEnd
  0
BLOCK
  5
25A
100
AcDbEntity
  8
0
100
AcDbBlockBegin
 62
2
  6
CONTINUOUS
  2
*D10
 70
65
 10
0.0
 20
0.0
  3
*D10
  1

  0
MTEXT
  5
25B
100
AcDbEntity
  8
0
100
AcDbMText
 62
2
  6
CONTINUOUS
  7
STANDARD
 71
3
 72
1
 10
8.699351075
 20
4.2719707542
 30
0.0
 11
0.0
 21
1.0
 31
0.0
 44
0.9
  1
70
 40
0.15625
 41
0.2586996337
  0
LINE
  5
25C
100
AcDbEntity
  8
0
100
AcDbLine
 62
2
  6
CONTINUOUS
 10
8.777476075
 20
5.0600361426
 11
8.777476075
 21
4.3500957542
  0
ENDBLK
  5
25D
100
AcDbEntity
  8
0
  6
BYBLOCK
 62
0
100
AcDbBlockEnd
  0
BLOCK
  5
25E
100
AcDbEntity
  8
0
100
AcDbBlockBegin
 62
2
  6
CONTINUOUS
  2
*D11
 70
65
 10
0.0
 20
0.0
  3
*D11
  1

  0
MTEXT
  5
25F
100
AcDbEntity
  8
0
100
AcDbMText
 62
2
  6
CONTINUOUS
  7
STANDARD
 71
3
 72
1
 10
8.274351075
 20
4.2719707542
 30
0.0
 11
0.0
 21
1.0
 31
0.0
 44
0.9
  1
59.205
 40
0.15625
 41
0.7760989011
  0
LINE
  5
260
100
AcDbEntity
  8
0
100
AcDbLine
 62
2
  6
CONTINUOUS
 10
8.352476075
 20
5.0600361426
 11
8.352476075
 21
4.3500957542
  0
ENDBLK
  5
261
100
AcDbEntity
  8
0
  6
BYBLOCK
 62
0
100
AcDbBlockEnd
  0
BLOCK
  5
262
100
AcDbEntity
  8
0
100
AcDbBlockBegin
 62
2
  6
CONTINUOUS
  2
*D12
 70
65
 10
0.0
 20
0.0
  3
*D12
  1

  0
MTEXT
  5
263
100
AcDbEntity
  8
0
100
AcDbMText
 62
2
  6
CONTINUOUS
  7
STANDARD
 71
1
 72
1
 10
7.1245479254
 20
8.8566523501
 30
0.0
 11
0.0
 21
1.0
 31
0.0
 44
0.9
  1
30
 40
0.15625
 41
0.2586996337
  0
LINE
  5
264
100
AcDbEntity
  8
0
100
AcDbLine
 62
2
  6
CONTINUOUS
 10
7.2026729254
 20
7.113532335
 11
7.2026729254
 21
8.7785273501
  0
ENDBLK
  5
265
100
AcDbEntity
  8
0
  6
BYBLOCK
 62
0
100
AcDbBlockEnd
  0
BLOCK
  5
266
100
AcDbEntity
  8
0
100
AcDbBlockBegin
 62
2
  6
CONTINUOUS
  2
*D13
 70
65
 10
0.0
 20
0.0
  3
*D13
  1

  0
MTEXT
  5
267
100
AcDbEntity
  8
0
100
AcDbMText
 62
2
  6
CONTINUOUS
  7
STANDARD
 71
1
 72
1
 10
6.5143117049
 20
8.8566523501
 30
0.0
 11
0.0
 21
1.0
 31
0.0
 44
0.9
  1
14.5
 40
0.15625
 41
0.5173992674
  0
LINE
  5
268
100
AcDbEntity
  8
0
100
AcDbLine
 62
2
  6
CONTINUOUS
 10
6.5924367049
 20
7.7358272445
 11
6.5924367049
 21
8.7785273501
  0
ENDBLK
  5
269
100
AcDbEntity
  8
0
  6
BYBLOCK
 62
0
100
AcDbBlockEnd
  0
BLOCK
  5
26A
100
AcDbEntity
  8
0
100
AcDbBlockBegin
 62
2
  6
CONTINUOUS
  2
*D14
 70
65
 10
0.0
 20
0.0
  3
*D14
  1

  0
MTEXT
  5
26B
100
AcDbEntity
  8
0
100
AcDbMText
 62
2
  6
CONTINUOUS
  7
STANDARD
 71
1
 72
1
 10
7.7347841458
 20
8.8566523501
 30
0.0
 11
0.0
 21
1.0
 31
0.0
 44
0.9
  1
45.5
 40
0.15625
 41
0.5173992674
  0
LINE
  5
26C
100
AcDbEntity
  8
0
100
AcDbLine
 62
2
  6
CONTINUOUS
 10
7.8129091458
 20
7.7569219872
 11
7.8129091458
 21
8.7785273501
  0
ENDBLK
  5
26D
100
AcDbEntity
  8
0
  6
BYBLOCK
 62
0
100
AcDbBlockEnd
  0
BLOCK
  5
26E
100
AcDbEntity
  8
0
100
AcDbBlockBegin
 62
2
  6
CONTINUOUS
  2
*D15
 70
65
 10
0.0
 20
0.0
  3
*D15
  1

  0
MTEXT
  5
26F
100
AcDbEntity
  8
0
100
AcDbMText
 62
2
  6
CONTINUOUS
  7
STANDARD
 71
1
 72
1
 10
9.2899022561
 20
8.8566523501
 30
0.0
 11
0.0
 21
1.0
 31
0.0
 44
0.9
  1
85
 40
0.15625
 41
0.2586996337
  0
LINE
  5
270
100
AcDbEntity
  8
0
100
AcDbLine
 62
2
  6
CONTINUOUS
 10
9.3680272561
 20
8.2096424419
 11
9.3680272561
 21
8.7785273501
  0
ENDBLK
  5
271
100
AcDbEntity
  8
0
  6
BYBLOCK
 62
0
100
AcDbBlockEnd
  0
BLOCK
  5
272
100
AcDbEntity
  8
0
100
AcDbBlockBegin
 62
2
  6
CONTINUOUS
  2
*D16
 70
65
 10
0.0
 20
0.0
  3
*D16
  1

  0
MTEXT
  5
273
100
AcDbEntity
  8
0
100
AcDbMText
 62
2
  6
CONTINUOUS
  7
STANDARD
 71
3
 72
1
 10
5.9434455632
 20
4.2719707542
 30
0.0
 11
0.0
 21
1.0
 31
0.0
 44
0.9
  1
0
 40
0.15625
 41
0.1293498168
  0
LINE
  5
274
100
AcDbEntity
  8
0
100
AcDbLine
 62
2
  6
CONTINUOUS
 10
6.0215705632
 20
5.57873693
 11
6.0215705632
 21
4.3500957542
  0
ENDBLK
  5
275
100
AcDbEntity
  8
0
  6
BYBLOCK
 62
0
100
AcDbBlockEnd
  0
BLOCK
  5
276
100
AcDbEntity
  8
0
100
AcDbBlockBegin
 62
2
  6
CONTINUOUS
  2
*D17
 70
65
 10
0.0
 20
0.0
  3
*D17
  1

  0
MTEXT
  5
277
100
AcDbEntity
  8
0
100
AcDbMText
 62
2
  6
CONTINUOUS
  7
STANDARD
 71
3
 72
1
 10
7.5182487128
 20
4.2024578433
 30
0.0
 11
0.0
 21
1.0
 31
0.0
 44
0.9
  1
40
 40
0.15625
 41
0.2586996337
  0
LINE
  5
278
100
AcDbEntity
  8
0
100
AcDbLine
 62
2
  6
CONTINUOUS
 10
7.5963737128
 20
5.8474377174
 11
7.5963737128
 21
4.2805828433
  0
ENDBLK
  5
279
100
AcDbEntity
  8
0
  6
BYBLOCK
 62
0
100
AcDbBlockEnd
  0
BLOCK
  5
27A
100
AcDbEntity
  8
0
100
AcDbBlockBegin
 62
2
  6
CONTINUOUS
  2
*D18
 70
65
 10
0.0
 20
0.0
  3
*D18
  1

  0
MTEXT
  5
27B
100
AcDbEntity
  8
0
100
AcDbMText
 62
2
  6
CONTINUOUS
  7
STANDARD
 71
2
 72
1
 10
10.5884155807
 20
5.2006611426
 30
0.0
 11
1.0
 21
0.0
 31
0.0
 44
0.9
  1
15.875
 40
0.15625
 41
0.7760989011
  0
LINE
  5
27C
100
AcDbEntity
  8
0
100
AcDbLine
 62
2
  6
CONTINUOUS
 10
11.1296432579
 20
4.8100361426
 11
10.4634155807
 21
4.8100361426
  0
LINE
  5
27D
100
AcDbEntity
  8
0
100
AcDbLine
 62
2
  6
CONTINUOUS
 10
11.1296432579
 20
5.4350361426
 11
10.4634155807
 21
5.4350361426
  0
LINE
  5
27E
100
AcDbEntity
  8
0
100
AcDbLine
 62
2
  6
CONTINUOUS
 10
10.5884155807
 20
4.8100361426
 11
10.5884155807
 21
4.3100361426
  0
LINE
  5
27F
100
AcDbEntity
  8
0
100
AcDbLine
 62
2
  6
CONTINUOUS
 10
10.5884155807
 20
5.4350361426
 11
10.5884155807
 21
5.9350361426
  0
INSERT
  5
280
100
AcDbEntity
  8
0
100
AcDbBlockReference
 62
2
  6
CONTINUOUS
  2
_FILLED
 10
10.5884155807
 20
4.8100361426
 41
0.1875
 42
0.1875
 43
0.1875
 50
90.0
  0
INSERT
  5
281
100
AcDbEntity
  8
0
100
AcDbBlockReference
 62
2
  6
CONTINUOUS
  2
_FILLED
 10
10.5884155807
 20
5.4350361426
 41
0.1875
 42
0.1875
 43
0.1875
 50
270.0
  0
ENDBLK
  5
282
100
AcDbEntity
  8
0
  6
BYBLOCK
 62
0
100
AcDbBlockEnd
  0
BLOCK
  5
283
100
AcDbEntity
  8
0
100
AcDbBlockBegin
 62
2
  6
CONTINUOUS
  2
*D19
 70
65
 10
0.0
 20
0.0
  3
*D19
  1

  0
MTEXT
  5
284
100
AcDbEntity
  8
0
100
AcDbMText
 62
2
  6
CONTINUOUS
  7
STANDARD
 71
2
 72
1
 10
11.9082339162
 20
5.2006611426
 30
0.0
 11
1.0
 21
0.0
 31
0.0
 44
0.9
  1
14.5
 40
0.15625
 41
0.5173992674
  0
LINE
  5
285
100
AcDbEntity
  8
0
100
AcDbLine
 62
2
  6
CONTINUOUS
 10
11.4906432579
 20
5.4079692135
 11
12.0332339162
 21
5.4079692135
  0
LINE
  5
286
100
AcDbEntity
  8
0
100
AcDbLine
 62
2
  6
CONTINUOUS
 10
11.4906432579
 20
4.8371030718
 11
12.0332339162
 21
4.8371030718
  0
LINE
  5
287
100
AcDbEntity
  8
0
100
AcDbLine
 62
2
  6
CONTINUOUS
 10
11.9082339162
 20
5.4079692135
 11
11.9082339162
 21
5.9079692135
  0
LINE
  5
288
100
AcDbEntity
  8
0
100
AcDbLine
 62
2
  6
CONTINUOUS
 10
11.9082339162
 20
4.8371030718
 11
11.9082339162
 21
4.3371030718
  0
INSERT
  5
289
100
AcDbEntity
  8
0
100
AcDbBlockReference
 62
2
  6
CONTINUOUS
  2
_FILLED
 10
11.9082339162
 20
5.4079692135
 41
0.1875
 42
0.1875
 43
0.1875
 50
270.0
  0
INSERT
  5
28A
100
AcDbEntity
  8
0
100
AcDbBlockReference
 62
2
  6
CONTINUOUS
  2
_FILLED
 10
11.9082339162
 20
4.8371030718
 41
0.1875
 42
0.1875
 43
0.1875
 50
90.0
  0
ENDBLK
  5
28B
100
AcDbEntity
  8
0
  6
BYBLOCK
 62
0
100
AcDbBlockEnd
  0
BLOCK
  5
28C
100
AcDbEntity
  8
0
100
AcDbBlockBegin
 62
2
  6
CONTINUOUS
  2
*D20
 70
65
 10
0.0
 20
0.0
  3
*D20
  1

  0
MTEXT
  5
28D
100
AcDbEntity
  8
0
100
AcDbMText
 62
2
  6
CONTINUOUS
  7
STANDARD
 71
1
 72
1
 10
12.0808688754
 20
6.194601352
 30
0.0
 11
1.0
 21
0.0
 31
0.0
 44
0.9
  1
4.699
 40
0.15625
 41
0.6467490842
  0
LINE
  5
28E
100
AcDbEntity
  8
0
100
AcDbLine
 62
2
  6
CONTINUOUS
 10
11.3771432579
 20
5.4704692135
 11
11.3771432579
 21
6.241476352
  0
LINE
  5
28F
100
AcDbEntity
  8
0
100
AcDbLine
 62
2
  6
CONTINUOUS
 10
11.1921432579
 20
6.116476352
 11
10.6921432579
 21
6.116476352
  0
LINE
  5
290
100
AcDbEntity
  8
0
100
AcDbLine
 62
2
  6
CONTINUOUS
 10
11.3771432579
 20
6.116476352
 11
12.0027438754
 21
6.116476352
  0
INSERT
  5
291
100
AcDbEntity
  8
0
100
AcDbBlockReference
 62
2
  6
CONTINUOUS
  2
_FILLED
 10
11.1921432579
 20
6.116476352
 41
0.1875
 42
0.1875
 43
0.1875
  0
INSERT
  5
292
100
AcDbEntity
  8
0
100
AcDbBlockReference
 62
2
  6
CONTINUOUS
  2
_FILLED
 10
11.3771432579
 20
6.116476352
 41
0.1875
 42
0.1875
 43
0.1875
 50
180.0
  0
ENDBLK
  5
293
100
AcDbEntity
  8
0
  6
BYBLOCK
 62
0
100
AcDbBlockEnd
  0
BLOCK
  5
294
100
AcDbEntity
  8
0
100
AcDbBlockBegin
 62
2
  6
CONTINUOUS
  2
*D21
 70
65
 10
0.0
 20
0.0
  3
*D21
  1

  0
MTEXT
  5
295
100
AcDbEntity
  8
0
100
AcDbMText
 62
2
  6
CONTINUOUS
  7
TEXTSTYLE_1
 71
3
 72
1
 10
5.5299415093
 20
6.3754562026
 30
0.0
 11
1.0
 21
0.0
 31
0.0
 44
0.9
  1
{\Fgdt;n}\Fveramono.ttf;5.75
 40
0.15625
 41
0.7257326007
  0
LINE
  5
296
100
AcDbEntity
  8
0
100
AcDbLine
 62
2
  6
CONTINUOUS
 10
6.3186308488
 20
5.9688644329
 11
5.7799415093
 21
6.2973312026
  0
LINE
  5
297
100
AcDbEntity
  8
0
100
AcDbLine
 62
2
  6
CONTINUOUS
 10
5.7799415093
 20
6.2973312026
 11
5.6080665093
 21
6.2973312026
  0
INSERT
  5
298
100
AcDbEntity
  8
0
100
AcDbBlockReference
 62
2
  6
CONTINUOUS
  2
_FILLED
 10
6.3186308488
 20
5.9688644329
 41
0.1875
 42
0.1875
 43
0.1875
 50
328.627176273
  0
ENDBLK
  5
299
100
AcDbEntity
  8
0
  6
BYBLOCK
 62
0
100
AcDbBlockEnd
  0
BLOCK
  5
29A
100
AcDbEntity
  8
0
100
AcDbBlockBegin
 62
2
  6
CONTINUOUS
  2
*D22
 70
65
 10
0.0
 20
0.0
  3
*D22
  1

  0
MTEXT
  5
29B
100
AcDbEntity
  8
0
100
AcDbMText
 62
2
  6
CONTINUOUS
  7
STANDARD
 71
1
 72
1
 10
6.1226493659
 20
8.596967026
 30
0.0
 11
1.0
 21
0.0
 31
0.0
 44
0.9
  1
3.5
 40
0.15625
 41
0.3880494505
  0
LINE
  5
29C
100
AcDbEntity
  8
0
100
AcDbLine
 62
2
  6
CONTINUOUS
 10
6.3626138702
 20
7.9276542529
 11
5.7476493659
 21
7.9276542529
  0
LINE
  5
29D
100
AcDbEntity
  8
0
100
AcDbLine
 62
2
  6
CONTINUOUS
 10
6.3626138702
 20
7.7898589773
 11
5.7476493659
 21
7.7898589773
  0
LINE
  5
29E
100
AcDbEntity
  8
0
100
AcDbLine
 62
2
  6
CONTINUOUS
 10
5.8726493659
 20
7.9276542529
 11
5.8726493659
 21
8.518842026
  0
LINE
  5
29F
100
AcDbEntity
  8
0
100
AcDbLine
 62
2
  6
CONTINUOUS
 10
5.8726493659
 20
8.518842026
 11
6.0445243659
 21
8.518842026
  0
LINE
  5
2A0
100
AcDbEntity
  8
0
100
AcDbLine
 62
2
  6
CONTINUOUS
 10
5.8726493659
 20
7.7898589773
 11
5.8726493659
 21
7.2898589773
  0
INSERT
  5
2A1
100
AcDbEntity
  8
0
100
AcDbBlockReference
 62
2
  6
CONTINUOUS
  2
_FILLED
 10
5.8726493659
 20
7.9276542529
 41
0.1875
 42
0.1875
 43
0.1875
 50
270.0
  0
INSERT
  5
2A2
100
AcDbEntity
  8
0
100
AcDbBlockReference
 62
2
  6
CONTINUOUS
  2
_FILLED
 10
5.8726493659
 20
7.7898589773
 41
0.1875
 42
0.1875
 43
0.1875
 50
90.0
  0
ENDBLK
  5
2A3
100
AcDbEntity
  8
0
  6
BYBLOCK
 62
0
100
AcDbBlockEnd
  0
BLOCK
  5
2A4
100
AcDbEntity
  8
0
100
AcDbBlockBegin
 62
2
  6
CONTINUOUS
  2
*D23
 70
65
 10
0.0
 20
0.0
  3
*D23
  1

  0
MTEXT
  5
2A5
100
AcDbEntity
  8
0
100
AcDbMText
 62
2
  6
CONTINUOUS
  7
STANDARD
 71
1
 72
1
 10
7.0649502381
 20
8.1899443977
 30
0.0
 11
1.0
 21
0.0
 31
0.0
 44
0.9
  1
12
 40
0.15625
 41
0.2586996337
  0
LINE
  5
2A6
100
AcDbEntity
  8
0
100
AcDbLine
 62
2
  6
CONTINUOUS
 10
6.3562162324
 20
7.9212566151
 11
6.3562162324
 21
8.2368193977
  0
LINE
  5
2A7
100
AcDbEntity
  8
0
100
AcDbLine
 62
2
  6
CONTINUOUS
 10
6.8286571773
 20
7.9212566151
 11
6.8286571773
 21
8.2368193977
  0
LINE
  5
2A8
100
AcDbEntity
  8
0
100
AcDbLine
 62
2
  6
CONTINUOUS
 10
6.3562162324
 20
8.1118193977
 11
6.5924367049
 21
8.1118193977
  0
LINE
  5
2A9
100
AcDbEntity
  8
0
100
AcDbLine
 62
2
  6
CONTINUOUS
 10
6.8286571773
 20
8.1118193977
 11
6.5924367049
 21
8.1118193977
  0
LINE
  5
2AA
100
AcDbEntity
  8
0
100
AcDbLine
 62
2
  6
CONTINUOUS
 10
6.5924367049
 20
8.1118193977
 11
6.9868252381
 21
8.1118193977
  0
INSERT
  5
2AB
100
AcDbEntity
  8
0
100
AcDbBlockReference
 62
2
  6
CONTINUOUS
  2
_FILLED
 10
6.3562162324
 20
8.1118193977
 41
0.1875
 42
0.1875
 43
0.1875
 50
180.0
  0
INSERT
  5
2AC
100
AcDbEntity
  8
0
100
AcDbBlockReference
 62
2
  6
CONTINUOUS
  2
_FILLED
 10
6.8286571773
 20
8.1118193977
 41
0.1875
 42
0.1875
 43
0.1875
  0
ENDBLK
  5
2AD
100
AcDbEntity
  8
0
  6
BYBLOCK
 62
0
100
AcDbBlockEnd
  0
BLOCK
  5
2AE
100
AcDbEntity
  8
0
100
AcDbBlockBegin
 62
2
  6
CONTINUOUS
  2
*D24
 70
65
 10
0.0
 20
0.0
  3
*D24
  1

  0
MTEXT
  5
2AF
100
AcDbEntity
  8
0
100
AcDbMText
 62
2
  6
CONTINUOUS
  7
STANDARD
 71
2
 72
1
 10
7.2026729254
 20
6.4180188201
 30
0.0
 11
1.0
 21
0.0
 31
0.0
 44
0.9
  1
32
 40
0.15625
 41
0.2586996337
  0
LINE
  5
2B0
100
AcDbEntity
  8
0
100
AcDbLine
 62
2
  6
CONTINUOUS
 10
6.5727516655
 20
7.1860203946
 11
6.5727516655
 21
6.2148938201
  0
LINE
  5
2B1
100
AcDbEntity
  8
0
100
AcDbLine
 62
2
  6
CONTINUOUS
 10
7.8325941852
 20
7.1860203946
 11
7.8325941852
 21
6.2148938201
  0
LINE
  5
2B2
100
AcDbEntity
  8
0
100
AcDbLine
 62
2
  6
CONTINUOUS
 10
6.5727516655
 20
6.3398938201
 11
6.9951981085
 21
6.3398938201
  0
LINE
  5
2B3
100
AcDbEntity
  8
0
100
AcDbLine
 62
2
  6
CONTINUOUS
 10
7.8325941852
 20
6.3398938201
 11
7.4101477422
 21
6.3398938201
  0
INSERT
  5
2B4
100
AcDbEntity
  8
0
100
AcDbBlockReference
 62
2
  6
CONTINUOUS
  2
_FILLED
 10
6.5727516655
 20
6.3398938201
 41
0.1875
 42
0.1875
 43
0.1875
 50
180.0
  0
INSERT
  5
2B5
100
AcDbEntity
  8
0
100
AcDbBlockReference
 62
2
  6
CONTINUOUS
  2
_FILLED
 10
7.8325941852
 20
6.3398938201
 41
0.1875
 42
0.1875
 43
0.1875
  0
ENDBLK
  5
2B6
100
AcDbEntity
  8
0
  6
BYBLOCK
 62
0
100
AcDbBlockEnd
  0
BLOCK
  5
2B7
100
AcDbEntity
  8
0
100
AcDbBlockBegin
 62
2
  6
CONTINUOUS
  2
*D25
 70
65
 10
0.0
 20
0.0
  3
*D25
  1

  0
MTEXT
  5
2B8
100
AcDbEntity
  8
0
100
AcDbMText
 62
2
  6
CONTINUOUS
  7
STANDARD
 71
2
 72
1
 10
8.2837738882
 20
7.3266453946
 30
0.0
 11
1.0
 21
0.0
 31
0.0
 44
0.9
  1
24
 40
0.15625
 41
0.2586996337
  0
LINE
  5
2B9
100
AcDbEntity
  8
0
100
AcDbLine
 62
2
  6
CONTINUOUS
 10
7.4226532403
 20
6.7760794497
 11
8.4087738882
 21
6.7760794497
  0
LINE
  5
2BA
100
AcDbEntity
  8
0
100
AcDbLine
 62
2
  6
CONTINUOUS
 10
7.4226532403
 20
7.7209613395
 11
8.4087738882
 21
7.7209613395
  0
LINE
  5
2BB
100
AcDbEntity
  8
0
100
AcDbLine
 62
2
  6
CONTINUOUS
 10
8.2837738882
 20
6.7760794497
 11
8.2837738882
 21
7.0922703946
  0
LINE
  5
2BC
100
AcDbEntity
  8
0
100
AcDbLine
 62
2
  6
CONTINUOUS
 10
8.2837738882
 20
7.7209613395
 11
8.2837738882
 21
7.4047703946
  0
INSERT
  5
2BD
100
AcDbEntity
  8
0
100
AcDbBlockReference
 62
2
  6
CONTINUOUS
  2
_FILLED
 10
8.2837738882
 20
6.7760794497
 41
0.1875
 42
0.1875
 43
0.1875
 50
270.0
  0
INSERT
  5
2BE
100
AcDbEntity
  8
0
100
AcDbBlockReference
 62
2
  6
CONTINUOUS
  2
_FILLED
 10
8.2837738882
 20
7.7209613395
 41
0.1875
 42
0.1875
 43
0.1875
 50
90.0
  0
ENDBLK
  5
2BF
100
AcDbEntity
  8
0
  6
BYBLOCK
 62
0
100
AcDbBlockEnd
  0
BLOCK
  5
2C0
100
AcDbEntity
  8
0
100
AcDbBlockBegin
 62
2
  6
CONTINUOUS
  2
*D26
 70
65
 10
0.0
 20
0.0
  3
*D26
  1

  0
MTEXT
  5
2C1
100
AcDbEntity
  8
0
100
AcDbMText
 62
2
  6
CONTINUOUS
  7
TEXTSTYLE_1
 71
1
 72
1
 10
9.6257031813
 20
5.9146137466
 30
0.0
 11
1.0
 21
0.0
 31
0.0
 44
0.9
  1
{\Fgdt;n}\Fveramono.ttf;2.5
 40
0.15625
 41
0.5963827839
  0
LINE
  5
2C2
100
AcDbEntity
  8
0
100
AcDbLine
 62
2
  6
CONTINUOUS
 10
8.3694635377
 20
5.1687238678
 11
8.6150619299
 21
5.8364887466
  0
LINE
  5
2C3
100
AcDbEntity
  8
0
100
AcDbLine
 62
2
  6
CONTINUOUS
 10
8.6150619299
 20
5.8364887466
 11
9.5475781813
 21
5.8364887466
  0
INSERT
  5
2C4
100
AcDbEntity
  8
0
100
AcDbBlockReference
 62
2
  6
CONTINUOUS
  2
_FILLED
 10
8.3694635377
 20
5.1687238678
 41
0.1875
 42
0.1875
 43
0.1875
 50
249.8068958606
  0
ENDBLK
  5
2C5
100
AcDbEntity
  8
0
  6
BYBLOCK
 62
0
100
AcDbBlockEnd
  0
ENDSEC
  0
SECTION
  2
ENTITIES
  0
IMAGE
  5
2C6
100
AcDbEntity
  8
0
100
AcDbRasterImage
 62
7
  6
CONTINUOUS
 10
4.9273147337
 20
1.6034341297
 30
0.0
 11
0.0066666667
 21
0.0
 31
0.0
 12
0.0
 22
0.0066666667
 32
0.0
 13
514.0
 23
162.0
340
       366
 70
1
280
0
281
50
282
50
283
0
360
       360
 71
1
 91
2
 14
-0.5
 24
-0.5
 14
513.5
 24
161.5
  0
IMAGE
  5
2C7
100
AcDbEntity
  8
0
100
AcDbRasterImage
 62
7
  6
CONTINUOUS
 10
13.809735022
 20
2.066458111
 30
0.0
 11
0.0066666667
 21
0.0
 31
0.0
 12
0.0
 22
0.0066666667
 32
0.0
 13
106.0
 23
127.0
340
       367
 70
1
280
0
281
50
282
50
283
0
360
       361
 71
1
 91
2
 14
-0.5
 24
-0.5
 14
105.5
 24
126.5
  0
MTEXT
  5
2C8
100
AcDbEntity
  8
0
100
AcDbMText
 62
2
  6
CONTINUOUS
  7
TEXTSTYLE_2
 71
1
 72
1
 10
13.8964043293
 20
1.956935083
 30
0.0
 11
1.0
 21
0.0
 31
0.0
 44
0.9
  1
www.buildlog.net
 40
0.13
 41
1.7219047619
  0
MTEXT
  5
2C9
100
AcDbEntity
  8
0
100
AcDbMText
 62
2
  6
CONTINUOUS
  7
TEXTSTYLE_2
 71
2
 72
1
 10
6.6437548946
 20
1.4409720438
 30
0.0
 11
1.0
 21
0.0
 31
0.0
 44
0.9
  1
The work is licensed under a Creative\PCommons Attribute-Share Alike 3.0 License
 40
0.1
 41
3.3941391941
  0
LINE
  5
2CA
100
AcDbEntity
  8
0
100
AcDbLine
 62
7
  6
CONTINUOUS
 10
11.4281432579
 20
8.2721424419
 11
11.4281432579
 21
5.4079692135
  0
LINE
  5
2CB
100
AcDbEntity
  8
0
100
AcDbLine
 62
7
  6
CONTINUOUS
 10
11.3771432579
 20
5.4079692135
 11
11.4281432579
 21
5.4079692135
  0
LINE
  5
2CC
100
AcDbEntity
  8
0
100
AcDbLine
 62
7
  6
CONTINUOUS
 10
11.3771432579
 20
5.4350361426
 11
11.3771432579
 21
5.4079692135
  0
LINE
  5
2CD
100
AcDbEntity
  8
0
100
AcDbLine
 62
7
  6
CONTINUOUS
 10
11.1921432579
 20
5.4350361426
 11
11.3771432579
 21
5.4350361426
  0
LINE
  5
2CE
100
AcDbEntity
  8
0
100
AcDbLine
 62
7
  6
CONTINUOUS
 10
11.1921432579
 20
8.2721424419
 11
11.1921432579
 21
5.4350361426
  0
LINE
  5
2CF
100
AcDbEntity
  8
0
100
AcDbLine
 62
7
  6
CONTINUOUS
 10
11.4281432579
 20
8.2721424419
 11
11.1921432579
 21
8.2721424419
  0
LINE
  5
2D0
100
AcDbEntity
  8
0
100
AcDbLine
 62
7
  6
CONTINUOUS
 10
11.4281432579
 20
4.8371030718
 11
11.4281432579
 21
4.7288353552
  0
LINE
  5
2D1
100
AcDbEntity
  8
0
100
AcDbLine
 62
7
  6
CONTINUOUS
 10
11.4281432579
 20
4.7288353552
 11
11.1921432579
 21
4.7288353552
  0
LINE
  5
2D2
100
AcDbEntity
  8
0
100
AcDbLine
 62
7
  6
CONTINUOUS
 10
11.1921432579
 20
4.8100361426
 11
11.1921432579
 21
4.7288353552
  0
LINE
  5
2D3
100
AcDbEntity
  8
0
100
AcDbLine
 62
7
  6
CONTINUOUS
 10
11.1921432579
 20
4.8100361426
 11
11.3771432579
 21
4.8100361426
  0
LINE
  5
2D4
100
AcDbEntity
  8
0
100
AcDbLine
 62
7
  6
CONTINUOUS
 10
11.3771432579
 20
4.8371030718
 11
11.3771432579
 21
4.8100361426
  0
LINE
  5
2D5
100
AcDbEntity
  8
0
100
AcDbLine
 62
7
  6
CONTINUOUS
 10
11.3771432579
 20
4.8371030718
 11
11.4281432579
 21
4.8371030718
  0
HATCH
  5
2D6
100
AcDbEntity
  8
0
100
AcDbHatch
 62
2
  6
CONTINUOUS
 10
0.0
 20
0.0
 30
0.0
210
0.0
220
0.0
230
1.0
  2
A
 70
0
 71
1
 91
2
 92
1
 93
6
 72
1
 10
11.4281432579
 20
8.2721424419
 11
11.4281432579
 21
5.4079692135
 72
1
 10
11.3771432579
 20
5.4079692135
 11
11.4281432579
 21
5.4079692135
 72
1
 10
11.3771432579
 20
5.4350361426
 11
11.3771432579
 21
5.4079692135
 72
1
 10
11.1921432579
 20
5.4350361426
 11
11.3771432579
 21
5.4350361426
 72
1
 10
11.1921432579
 20
8.2721424419
 11
11.1921432579
 21
5.4350361426
 72
1
 10
11.4281432579
 20
8.2721424419
 11
11.1921432579
 21
8.2721424419
 97
12
330
2CA
330
2CB
330
2CC
330
2CD
330
2CE
330
2CF
330
2D0
330
2D1
330
2D2
330
2D3
330
2D4
330
2D5
 92
1
 93
6
 72
1
 10
11.4281432579
 20
4.8371030718
 11
11.4281432579
 21
4.7288353552
 72
1
 10
11.4281432579
 20
4.7288353552
 11
11.1921432579
 21
4.7288353552
 72
1
 10
11.1921432579
 20
4.8100361426
 11
11.1921432579
 21
4.7288353552
 72
1
 10
11.1921432579
 20
4.8100361426
 11
11.3771432579
 21
4.8100361426
 72
1
 10
11.3771432579
 20
4.8371030718
 11
11.3771432579
 21
4.8100361426
 72
1
 10
11.3771432579
 20
4.8371030718
 11
11.4281432579
 21
4.8371030718
 97
12
330
2CA
330
2CB
330
2CC
330
2CD
330
2CE
330
2CF
330
2D0
330
2D1
330
2D2
330
2D3
330
2D4
330
2D5
 75
0
 76
0
 52
45.0
 41
0.0513918013
 77
0
 78
1
 53
45.0
 43
0.0
 44
0.0
 45
-0.0363394912
 46
0.0363394912
 79
0
 98
1
 10
0.0
 20
0.0
  0
MTEXT
  5
2D7
100
AcDbEntity
  8
0
100
AcDbMText
 62
7
  6
CONTINUOUS
  7
STANDARD
 71
1
 72
1
 10
8.1075598666
 20
8.6113843153
 30
0.0
 11
1.0
 21
0.0
 31
0.0
 44
0.9
  1
A
 40
0.15625
 41
0.1293498168
  0
LEADER
  5
2D8
100
AcDbEntity
  8
0
100
AcDbLeader
 62
7
  6
CONTINUOUS
  3
STANDARD
 71
1
 72
0
 73
3
 75
0
 76
2
 10
8.3015845919
 20
8.5332593153
 30
0.0
 10
8.777476075
 20
8.5332593153
 30
0.0
1001
ACAD
1000
DSTYLE
1002
{
1070
77
1070
0
1002
}
  0
MTEXT
  5
2D9
100
AcDbEntity
  8
0
100
AcDbMText
 62
7
  6
CONTINUOUS
  7
STANDARD
 71
1
 72
1
 10
7.8705061963
 20
4.5571427271
 30
0.0
 11
1.0
 21
0.0
 31
0.0
 44
0.9
  1
A
 40
0.15625
 41
0.1293498168
  0
LEADER
  5
2DA
100
AcDbEntity
  8
0
100
AcDbLeader
 62
7
  6
CONTINUOUS
  3
STANDARD
 71
1
 72
0
 73
3
 75
0
 76
2
 10
8.0645309215
 20
4.4790177271
 30
0.0
 10
8.777476075
 20
4.4790177271
 30
0.0
1001
ACAD
1000
DSTYLE
1002
{
1070
77
1070
0
1002
}
  0
DIMENSION
  5
2DB
100
AcDbEntity
  8
0
100
AcDbDimension
 62
2
  6
CONTINUOUS
  2
*D0
 10
6.933972138
 20
4.7288353552
 11
5.1016327872
 21
5.51623693
 70
166
 71
3
 42
20.0
  3
DIMSTYLE_1
100
AcDbOrdinateDimension
 13
6.0840705632
 23
5.51623693
 14
5.5678072377
 24
5.51623693
  0
DIMENSION
  5
2DC
100
AcDbEntity
  8
0
100
AcDbDimension
 62
2
  6
CONTINUOUS
  2
*D1
 10
9.2430272561
 20
4.7288353552
 11
9.8110976204
 21
5.1225361426
 70
166
 71
1
 42
10.0
  3
DIMSTYLE_1
100
AcDbOrdinateDimension
 13
8.839976075
 23
5.1225361426
 14
9.6036228035
 24
5.1225361426
  0
DIMENSION
  5
2DD
100
AcDbEntity
  8
0
100
AcDbDimension
 62
2
  6
CONTINUOUS
  2
*D2
 10
6.933972138
 20
4.7288353552
 11
5.1016327872
 21
5.9099377174
 70
166
 71
3
 42
30.0
  3
DIMSTYLE_1
100
AcDbOrdinateDimension
 13
6.3527713506
 23
5.9099377174
 14
5.5678072377
 24
5.9099377174
  0
DIMENSION
  5
2DE
100
AcDbEntity
  8
0
100
AcDbDimension
 62
2
  6
CONTINUOUS
  2
*D3
 10
6.933972138
 20
4.7288353552
 11
4.7135833366
 21
6.6382841741
 70
166
 71
3
 42
48.5
  3
DIMSTYLE_1
100
AcDbOrdinateDimension
 13
6.3626138702
 23
6.6382841741
 14
5.5678072377
 24
6.6382841741
  0
DIMENSION
  5
2DF
100
AcDbEntity
  8
0
100
AcDbDimension
 62
2
  6
CONTINUOUS
  2
*D4
 10
6.933972138
 20
4.7288353552
 11
5.1016327872
 21
7.2485203946
 70
166
 71
3
 42
64.0
  3
DIMSTYLE_1
100
AcDbOrdinateDimension
 13
7.3914102629
 23
7.2485203946
 14
5.5678072377
 24
7.2485203946
  0
DIMENSION
  5
2E0
100
AcDbEntity
  8
0
100
AcDbDimension
 62
2
  6
CONTINUOUS
  2
*D5
 10
6.933972138
 20
4.7288353552
 11
4.7135833366
 21
7.8587566151
 70
166
 71
3
 42
79.5
  3
DIMSTYLE_1
100
AcDbOrdinateDimension
 13
7.9293262016
 23
7.8587566151
 14
5.5678072377
 24
7.8587566151
  0
DIMENSION
  5
2E1
100
AcDbEntity
  8
0
100
AcDbDimension
 62
2
  6
CONTINUOUS
  2
*D6
 10
6.933972138
 20
4.7288353552
 11
5.1016327872
 21
8.2721424419
 70
166
 71
3
 42
90.0
  3
DIMSTYLE_1
100
AcDbOrdinateDimension
 13
6.0840705632
 23
8.2721424419
 14
5.5678072377
 24
8.2721424419
  0
DIMENSION
  5
2E2
100
AcDbEntity
  8
0
100
AcDbDimension
 62
2
  6
CONTINUOUS
  2
*D7
 10
6.933972138
 20
4.7288353552
 11
5.2956575124
 21
4.7288353552
 70
166
 71
3
  3
DIMSTYLE_1
100
AcDbOrdinateDimension
 13
6.871472138
 23
4.7288353552
 14
5.5678072377
 24
4.7288353552
  0
DIMENSION
  5
2E3
100
AcDbEntity
  8
0
100
AcDbDimension
 62
2
  6
CONTINUOUS
  2
*D8
 10
6.0215705632
 20
5.64123693
 11
6.5311878309
 21
3.9113443279
 70
230
 71
3
 42
10.0
  3
DIMSTYLE_1
100
AcDbOrdinateDimension
 13
6.4152713506
 23
5.8474377174
 14
6.4152713506
 24
4.3500957542
  0
DIMENSION
  5
2E4
100
AcDbEntity
  8
0
100
AcDbDimension
 62
2
  6
CONTINUOUS
  2
*D9
 10
6.0215705632
 20
5.64123693
 11
6.9248886183
 21
3.9113443279
 70
230
 71
3
 42
20.0
  3
DIMSTYLE_1
100
AcDbOrdinateDimension
 13
6.808972138
 23
4.7913353552
 14
6.808972138
 24
4.3500957542
  0
DIMENSION
  5
2E5
100
AcDbEntity
  8
0
100
AcDbDimension
 62
2
  6
CONTINUOUS
  2
*D10
 10
6.0215705632
 20
5.64123693
 11
8.8933925553
 21
3.9113443279
 70
230
 71
3
 42
70.0
  3
DIMSTYLE_1
100
AcDbOrdinateDimension
 13
8.777476075
 23
5.0600361426
 14
8.777476075
 24
4.3500957542
  0
DIMENSION
  5
2E6
100
AcDbEntity
  8
0
100
AcDbDimension
 62
2
  6
CONTINUOUS
  2
*D11
 10
6.0215705632
 20
5.64123693
 11
8.7002255161
 21
3.1900914754
 70
230
 71
3
 42
59.205
  3
DIMSTYLE_1
100
AcDbOrdinateDimension
 13
8.352476075
 23
5.0600361426
 14
8.352476075
 24
4.3500957542
  0
DIMENSION
  5
2E7
100
AcDbEntity
  8
0
100
AcDbDimension
 62
2
  6
CONTINUOUS
  2
*D12
 10
6.0215705632
 20
8.1471424419
 11
7.2026729254
 21
8.986002167
 70
230
 71
1
 42
30.0
  3
DIMSTYLE_1
100
AcDbOrdinateDimension
 13
7.2026729254
 23
7.113532335
 14
7.2026729254
 24
8.7785273501
  0
DIMENSION
  5
2E8
100
AcDbEntity
  8
0
100
AcDbDimension
 62
2
  6
CONTINUOUS
  2
*D13
 10
6.0215705632
 20
8.1471424419
 11
6.5924367049
 21
9.1153519838
 70
230
 71
1
 42
14.5
  3
DIMSTYLE_1
100
AcDbOrdinateDimension
 13
6.5924367049
 23
7.7358272445
 14
6.5924367049
 24
8.7785273501
  0
DIMENSION
  5
2E9
100
AcDbEntity
  8
0
100
AcDbDimension
 62
2
  6
CONTINUOUS
  2
*D14
 10
6.0215705632
 20
8.1471424419
 11
7.8129091458
 21
9.1153519838
 70
230
 71
1
 42
45.5
  3
DIMSTYLE_1
100
AcDbOrdinateDimension
 13
7.8129091458
 23
7.7569219872
 14
7.8129091458
 24
8.7785273501
  0
DIMENSION
  5
2EA
100
AcDbEntity
  8
0
100
AcDbDimension
 62
2
  6
CONTINUOUS
  2
*D15
 10
6.0215705632
 20
8.1471424419
 11
9.3680272561
 21
8.986002167
 70
230
 71
1
 42
85.0
  3
DIMSTYLE_1
100
AcDbOrdinateDimension
 13
9.3680272561
 23
8.2096424419
 14
9.3680272561
 24
8.7785273501
  0
DIMENSION
  5
2EB
100
AcDbEntity
  8
0
100
AcDbDimension
 62
2
  6
CONTINUOUS
  2
*D16
 10
6.0215705632
 20
5.64123693
 11
6.0795288033
 21
4.091657541
 70
230
 71
3
  3
DIMSTYLE_1
100
AcDbOrdinateDimension
 13
6.0215705632
 23
5.57873693
 14
6.0215705632
 24
4.3500957542
  0
DIMENSION
  5
2EC
100
AcDbEntity
  8
0
100
AcDbDimension
 62
2
  6
CONTINUOUS
  2
*D17
 10
6.0215705632
 20
5.64123693
 11
7.7122901931
 21
3.841831417
 70
230
 71
3
 42
40.0
  3
DIMSTYLE_1
100
AcDbOrdinateDimension
 13
7.5963737128
 23
5.8474377174
 14
7.5963737128
 24
4.2805828433
  0
DIMENSION
  5
2ED
100
AcDbEntity
  8
0
100
AcDbDimension
 62
2
  6
CONTINUOUS
  2
*D18
 10
10.5884155807
 20
5.4350361426
 11
10.2003661302
 21
5.1225361426
 70
160
 71
2
 42
15.875
  3
DIMSTYLE_2
100
AcDbAlignedDimension
 13
11.1296432579
 23
4.8100361426
 14
11.1296432579
 24
5.4350361426
 50
90.0
100
AcDbRotatedDimension
  0
DIMENSION
  5
2EE
100
AcDbEntity
  8
0
100
AcDbDimension
 62
2
  6
CONTINUOUS
  2
*D19
 10
11.9082339162
 20
4.8371030718
 11
11.6495342825
 21
5.1225361426
 70
160
 71
2
 42
14.5
  3
DIMSTYLE_2
100
AcDbAlignedDimension
 13
11.4906432579
 23
5.4079692135
 14
11.4906432579
 24
4.8371030718
 50
270.0
100
AcDbRotatedDimension
  0
DIMENSION
  5
2EF
100
AcDbEntity
  8
0
100
AcDbDimension
 62
2
  6
CONTINUOUS
  2
*D20
 10
11.3771432579
 20
6.116476352
 11
12.4042434175
 21
6.116476352
 70
160
 71
1
 42
4.699
  3
DIMSTYLE_2
100
AcDbAlignedDimension
 13
11.1921432579
 23
5.4350361426
 14
11.3771432579
 24
5.4704692135
100
AcDbRotatedDimension
  0
DIMENSION
  5
2F0
100
AcDbEntity
  8
0
100
AcDbDimension
 62
2
  6
CONTINUOUS
  2
*D21
 10
6.3186308488
 20
5.9688644329
 11
4.7538426082
 21
6.2973312026
 70
163
 71
3
 42
5.75
  1
<>
  3
DIMSTYLE_3
100
AcDbDiametricDimension
 15
6.5119118523
 25
5.851011002
  0
DIMENSION
  5
2F1
100
AcDbEntity
  8
0
100
AcDbDimension
 62
2
  6
CONTINUOUS
  2
*D22
 10
5.8726493659
 20
7.7898589773
 11
6.3166740912
 21
8.518842026
 70
160
 71
1
 42
3.5
  3
DIMSTYLE_2
100
AcDbAlignedDimension
 13
6.3626138702
 23
7.9276542529
 14
6.3626138702
 24
7.7898589773
 50
270.0
100
AcDbRotatedDimension
  0
DIMENSION
  5
2F2
100
AcDbEntity
  8
0
100
AcDbDimension
 62
2
  6
CONTINUOUS
  2
*D23
 10
6.8286571773
 20
8.1118193977
 11
7.194300055
 21
8.1118193977
 70
160
 71
1
 42
12.0
  3
DIMSTYLE_2
100
AcDbAlignedDimension
 13
6.3562162324
 23
7.9212566151
 14
6.8286571773
 24
7.9212566151
100
AcDbRotatedDimension
  0
DIMENSION
  5
2F3
100
AcDbEntity
  8
0
100
AcDbDimension
 62
2
  6
CONTINUOUS
  2
*D24
 10
7.8325941852
 20
6.3398938201
 11
7.0733231085
 21
6.3398938201
 70
160
 71
2
 42
32.0
  3
DIMSTYLE_2
100
AcDbAlignedDimension
 13
6.5727516655
 23
7.1860203946
 14
7.8325941852
 24
7.1860203946
100
AcDbRotatedDimension
  0
DIMENSION
  5
2F4
100
AcDbEntity
  8
0
100
AcDbDimension
 62
2
  6
CONTINUOUS
  2
*D25
 10
8.2837738882
 20
7.7209613395
 11
8.1544240713
 21
7.2485203946
 70
160
 71
2
 42
24.0
  3
DIMSTYLE_2
100
AcDbAlignedDimension
 13
7.4226532403
 23
6.7760794497
 14
7.4226532403
 24
7.7209613395
 50
90.0
100
AcDbRotatedDimension
  0
DIMENSION
  5
2F5
100
AcDbEntity
  8
0
100
AcDbDimension
 62
2
  6
CONTINUOUS
  2
*D26
 10
8.3694635377
 20
5.1687238678
 11
9.9238945732
 21
5.8364887466
 70
163
 71
1
 42
2.5
  1
<>
  3
DIMSTYLE_3
100
AcDbDiametricDimension
 15
8.3354886122
 25
5.0763484175
  0
LINE
  5
2F6
100
AcDbEntity
  8
0
100
AcDbLine
 62
7
  6
CONTINUOUS
 10
15.9997977969
 20
1.0002134313
 11
10.2497977969
 21
1.0002134313
  0
LINE
  5
2F7
100
AcDbEntity
  8
0
100
AcDbLine
 62
7
  6
CONTINUOUS
 10
15.9997977969
 20
1.0002134313
 11
15.9997977969
 21
3.0002134313
  0
LINE
  5
2F8
100
AcDbEntity
  8
0
100
AcDbLine
 62
7
  6
CONTINUOUS
 10
15.9997977969
 20
1.2502134313
 11
10.2497977969
 21
1.2502134313
  0
LINE
  5
2F9
100
AcDbEntity
  8
0
100
AcDbLine
 62
7
  6
CONTINUOUS
 10
15.9997977969
 20
1.7502134313
 11
13.7497977969
 21
1.7502134313
  0
LINE
  5
2FA
100
AcDbEntity
  8
0
100
AcDbLine
 62
7
  6
CONTINUOUS
 10
15.9997977969
 20
3.0002134313
 11
10.2497977969
 21
3.0002134313
  0
LINE
  5
2FB
100
AcDbEntity
  8
0
100
AcDbLine
 62
7
  6
CONTINUOUS
 10
13.7497977969
 20
1.0002134313
 11
13.7497977969
 21
3.0002134313
  0
LINE
  5
2FC
100
AcDbEntity
  8
0
100
AcDbLine
 62
7
  6
CONTINUOUS
 10
11.7497977969
 20
1.0002134313
 11
11.7497977969
 21
1.2502134313
  0
LINE
  5
2FD
100
AcDbEntity
  8
0
100
AcDbLine
 62
7
  6
CONTINUOUS
 10
10.2497977969
 20
1.0002134313
 11
10.2497977969
 21
3.0002134313
  0
MTEXT
  5
2FE
100
AcDbEntity
  8
BALLOONS
100
AcDbMText
 62
2
  6
CONTINUOUS
  7
TEXTSTYLE_3
 71
1
 72
1
 10
13.8122977969
 20
1.1720884313
 30
0.0
 11
1.0
 21
0.0
 31
0.0
 44
0.9
  1
SHEET 1 OF 1
 40
0.125
 41
1.2417582418
  0
MTEXT
  5
2FF
100
AcDbEntity
  8
BALLOONS
100
AcDbMText
 62
2
  6
CONTINUOUS
  7
TEXTSTYLE_3
 71
1
 72
1
 10
10.3122977969
 20
1.1720884313
 30
0.0
 11
1.0
 21
0.0
 31
0.0
 44
0.9
  1
SCALE
 40
0.125
 41
0.5173992674
  0
MTEXT
  5
300
100
AcDbEntity
  8
BALLOONS
100
AcDbMText
 62
2
  6
CONTINUOUS
  7
TEXTSTYLE_2
 71
2
 72
1
 10
14.8747977969
 20
1.5802134313
 30
0.0
 11
1.0
 21
0.0
 31
0.0
 44
0.9
  1
B17017
 40
0.16
 41
0.7947252747
  0
MTEXT
  5
301
100
AcDbEntity
  8
BALLOONS
100
AcDbMText
 62
2
  6
CONTINUOUS
  7
TEXTSTYLE_2
 71
2
 72
1
 10
11.9997977969
 20
2.2252134313
 30
0.0
 11
1.0
 21
0.0
 31
0.0
 44
0.9
  1
Z Motor Plate
 40
0.16
 41
1.7219047619
  0
LINE
  5
302
100
AcDbEntity
  8
0
100
AcDbLine
 62
7
  6
CONTINUOUS
 10
10.250020718
 20
1.0000828015
 11
8.500020718
 21
1.0000828015
  0
LINE
  5
303
100
AcDbEntity
  8
0
100
AcDbLine
 62
7
  6
CONTINUOUS
 10
10.250020718
 20
1.0000828015
 11
10.250020718
 21
2.9980828015
  0
LINE
  5
304
100
AcDbEntity
  8
0
100
AcDbLine
 62
7
  6
CONTINUOUS
 10
10.250020718
 20
1.3330828015
 11
8.500020718
 21
1.3330828015
  0
LINE
  5
305
100
AcDbEntity
  8
0
100
AcDbLine
 62
7
  6
CONTINUOUS
 10
10.250020718
 20
1.6660828015
 11
8.500020718
 21
1.6660828015
  0
LINE
  5
306
100
AcDbEntity
  8
0
100
AcDbLine
 62
7
  6
CONTINUOUS
 10
10.250020718
 20
1.9990828015
 11
8.500020718
 21
1.9990828015
  0
LINE
  5
307
100
AcDbEntity
  8
0
100
AcDbLine
 62
7
  6
CONTINUOUS
 10
10.250020718
 20
2.3320828015
 11
8.500020718
 21
2.3320828015
  0
LINE
  5
308
100
AcDbEntity
  8
0
100
AcDbLine
 62
7
  6
CONTINUOUS
 10
10.250020718
 20
2.6650828015
 11
8.500020718
 21
2.6650828015
  0
LINE
  5
309
100
AcDbEntity
  8
0
100
AcDbLine
 62
7
  6
CONTINUOUS
 10
10.250020718
 20
2.9980828015
 11
8.500020718
 21
2.9980828015
  0
LINE
  5
30A
100
AcDbEntity
  8
0
100
AcDbLine
 62
7
  6
CONTINUOUS
 10
9.500020718
 20
2.6650828015
 11
9.500020718
 21
2.9980828015
  0
LINE
  5
30B
100
AcDbEntity
  8
0
100
AcDbLine
 62
7
  6
CONTINUOUS
 10
9.125020718
 20
1.0000828015
 11
9.125020718
 21
2.9980828015
  0
LINE
  5
30C
100
AcDbEntity
  8
0
100
AcDbLine
 62
7
  6
CONTINUOUS
 10
8.500020718
 20
1.0000828015
 11
8.500020718
 21
2.9980828015
  0
MTEXT
  5
30D
100
AcDbEntity
  8
BALLOONS
100
AcDbMText
 62
2
  6
CONTINUOUS
  7
TEXTSTYLE_4
 71
1
 72
1
 10
8.562520718
 20
1.2665828015
 30
0.0
 11
1.0
 21
0.0
 31
0.0
 44
0.9
  1
CHIEF\PENGR.
 40
0.08
 41
0.3311355311
  0
MTEXT
  5
30E
100
AcDbEntity
  8
BALLOONS
100
AcDbMText
 62
2
  6
CONTINUOUS
  7
TEXTSTYLE_4
 71
1
 72
1
 10
8.562520718
 20
1.5995828015
 30
0.0
 11
1.0
 21
0.0
 31
0.0
 44
0.9
  1
PROJ.\PENGR.
 40
0.08
 41
0.3311355311
  0
MTEXT
  5
30F
100
AcDbEntity
  8
BALLOONS
100
AcDbMText
 62
2
  6
CONTINUOUS
  7
TEXTSTYLE_4
 71
1
 72
1
 10
8.562520718
 20
1.9325828015
 30
0.0
 11
1.0
 21
0.0
 31
0.0
 44
0.9
  1
ELEC.\PENGR.
 40
0.08
 41
0.3311355311
  0
MTEXT
  5
310
100
AcDbEntity
  8
BALLOONS
100
AcDbMText
 62
2
  6
CONTINUOUS
  7
TEXTSTYLE_4
 71
1
 72
1
 10
8.562520718
 20
2.2655828015
 30
0.0
 11
1.0
 21
0.0
 31
0.0
 44
0.9
  1
MECH.\PENGR.
 40
0.08
 41
0.3311355311
  0
MTEXT
  5
311
100
AcDbEntity
  8
BALLOONS
100
AcDbMText
 62
2
  6
CONTINUOUS
  7
TEXTSTYLE_4
 71
1
 72
1
 10
8.562520718
 20
2.5385828015
 30
0.0
 11
1.0
 21
0.0
 31
0.0
 44
0.9
  1
CHECKER
 40
0.08
 41
0.4635897436
  0
MTEXT
  5
312
100
AcDbEntity
  8
BALLOONS
100
AcDbMText
 62
2
  6
CONTINUOUS
  7
STANDARD
 71
2
 72
1
 10
9.875020718
 20
2.8815828015
 30
0.0
 11
1.0
 21
0.0
 31
0.0
 44
0.9
  1
11/16/11
 40
0.1
 41
0.6622710623
  0
MTEXT
  5
313
100
AcDbEntity
  8
BALLOONS
100
AcDbMText
 62
2
  6
CONTINUOUS
  7
TEXTSTYLE_2
 71
2
 72
1
 10
9.312520718
 20
2.8815828015
 30
0.0
 11
1.0
 21
0.0
 31
0.0
 44
0.9
  1
BJD
 40
0.1
 41
0.2483516484
  0
MTEXT
  5
314
100
AcDbEntity
  8
BALLOONS
100
AcDbMText
 62
2
  6
CONTINUOUS
  7
TEXTSTYLE_4
 71
1
 72
1
 10
8.562520718
 20
2.8715828015
 30
0.0
 11
1.0
 21
0.0
 31
0.0
 44
0.9
  1
DRAWN
 40
0.08
 41
0.3311355311
  0
LINE
  5
315
100
AcDbEntity
  8
0
100
AcDbLine
 62
2
  6
CONTINUOUS
 10
11.5010309862
 20
9.9984879383
 11
16.0010309862
 21
9.9984879383
  0
LINE
  5
316
100
AcDbEntity
  8
0
100
AcDbLine
 62
2
  6
CONTINUOUS
 10
11.5010309862
 20
9.9984879383
 11
11.5010309862
 21
9.1703629383
  0
LINE
  5
317
100
AcDbEntity
  8
0
100
AcDbLine
 62
2
  6
CONTINUOUS
 10
11.5010309862
 20
9.7563004383
 11
16.0010309862
 21
9.7563004383
  0
LINE
  5
318
100
AcDbEntity
  8
0
100
AcDbLine
 62
2
  6
CONTINUOUS
 10
11.5010309862
 20
9.5609879383
 11
16.0010309862
 21
9.5609879383
  0
LINE
  5
319
100
AcDbEntity
  8
0
100
AcDbLine
 62
2
  6
CONTINUOUS
 10
11.5010309862
 20
9.3656754383
 11
16.0010309862
 21
9.3656754383
  0
LINE
  5
31A
100
AcDbEntity
  8
0
100
AcDbLine
 62
2
  6
CONTINUOUS
 10
11.5010309862
 20
9.1703629383
 11
16.0010309862
 21
9.1703629383
  0
LINE
  5
31B
100
AcDbEntity
  8
0
100
AcDbLine
 62
2
  6
CONTINUOUS
 10
12.0010309862
 20
9.7563004383
 11
12.0010309862
 21
9.1703629383
  0
LINE
  5
31C
100
AcDbEntity
  8
0
100
AcDbLine
 62
2
  6
CONTINUOUS
 10
14.8760309862
 20
9.7563004383
 11
14.8760309862
 21
9.1703629383
  0
LINE
  5
31D
100
AcDbEntity
  8
0
100
AcDbLine
 62
2
  6
CONTINUOUS
 10
15.2510309862
 20
9.7563004383
 11
15.2510309862
 21
9.1703629383
  0
LINE
  5
31E
100
AcDbEntity
  8
0
100
AcDbLine
 62
2
  6
CONTINUOUS
 10
16.0010309862
 20
9.9984879383
 11
16.0010309862
 21
9.1703629383
  0
MTEXT
  5
31F
100
AcDbEntity
  8
BALLOONS
100
AcDbMText
 62
2
  6
CONTINUOUS
  7
TEXTSTYLE_2
 71
2
 72
1
 10
13.7510309862
 20
9.9398941883
 30
0.0
 11
1.0
 21
0.0
 31
0.0
 44
0.9
  1
REVISIONS
 40
0.125
 41
0.9313186813
  0
MTEXT
  5
320
100
AcDbEntity
  8
BALLOONS
100
AcDbMText
 62
2
  6
CONTINUOUS
  7
TEXTSTYLE_2
 71
2
 72
1
 10
11.7510309862
 20
9.7086441883
 30
0.0
 11
1.0
 21
0.0
 31
0.0
 44
0.9
  1
SYM
 40
0.1
 41
0.2483516484
  0
MTEXT
  5
321
100
AcDbEntity
  8
BALLOONS
100
AcDbMText
 62
2
  6
CONTINUOUS
  7
TEXTSTYLE_2
 71
2
 72
1
 10
13.4385309862
 20
9.7086441883
 30
0.0
 11
1.0
 21
0.0
 31
0.0
 44
0.9
  1
DESCRIPTION
 40
0.1
 41
0.9106227106
  0
MTEXT
  5
322
100
AcDbEntity
  8
BALLOONS
100
AcDbMText
 62
2
  6
CONTINUOUS
  7
TEXTSTYLE_2
 71
2
 72
1
 10
15.0635309862
 20
9.7086441883
 30
0.0
 11
1.0
 21
0.0
 31
0.0
 44
0.9
  1
BY
 40
0.1
 41
0.1655677656
  0
MTEXT
  5
323
100
AcDbEntity
  8
BALLOONS
100
AcDbMText
 62
2
  6
CONTINUOUS
  7
TEXTSTYLE_2
 71
2
 72
1
 10
15.6260309862
 20
9.7086441883
 30
0.0
 11
1.0
 21
0.0
 31
0.0
 44
0.9
  1
DATE
 40
0.1
 41
0.3311355311
  0
MTEXT
  5
324
100
AcDbEntity
  8
BALLOONS
100
AcDbMText
 62
2
  6
CONTINUOUS
  7
TEXTSTYLE_2
 71
2
 72
1
 10
11.7510309862
 20
9.5133316883
 30
0.0
 11
1.0
 21
0.0
 31
0.0
 44
0.9
  1
1
 40
0.1
 41
0.0827838828
  0
MTEXT
  5
325
100
AcDbEntity
  8
BALLOONS
100
AcDbMText
 62
2
  6
CONTINUOUS
  7
TEXTSTYLE_2
 71
1
 72
1
 10
12.0635309862
 20
9.5133316883
 30
0.0
 11
1.0
 21
0.0
 31
0.0
 44
0.9
  1
ORIGINAL        
 40
0.1
 41
1.3245421245
  0
MTEXT
  5
326
100
AcDbEntity
  8
BALLOONS
100
AcDbMText
 62
2
  6
CONTINUOUS
  7
TEXTSTYLE_2
 71
2
 72
1
 10
15.0635309862
 20
9.5133316883
 30
0.0
 11
1.0
 21
0.0
 31
0.0
 44
0.9
  1
BJD
 40
0.1
 41
0.2483516484
  0
MTEXT
  5
327
100
AcDbEntity
  8
BALLOONS
100
AcDbMText
 62
2
  6
CONTINUOUS
  7
TEXTSTYLE_5
 71
2
 72
1
 10
15.6260309862
 20
9.5133316883
 30
0.0
 11
1.0
 21
0.0
 31
0.0
 44
0.9
  1
11/16/11
 40
0.1
 41
0.6622710623
  0
MTEXT
  5
328
100
AcDbEntity
  8
BALLOONS
100
AcDbMText
 62
2
  6
CONTINUOUS
  7
STANDARD
 71
3
 72
1
 10
12.0731186157
 20
3.8027349974
 30
0.0
 11
1.0
 21
0.0
 31
0.0
 44
0.9
  1
SECTION  A-A
 40
0.15625
 41
1.5521978022
  0
LINE
  5
329
100
AcDbEntity
  8
0
100
AcDbLine
 62
7
  6
CONTINUOUS
 10
0.0
 20
0.0
 11
0.0
 21
11.0
  0
LINE
  5
32A
100
AcDbEntity
  8
0
100
AcDbLine
 62
7
  6
CONTINUOUS
 10
1.0
 20
1.0
 11
1.0
 21
10.0
  0
LINE
  5
32B
100
AcDbEntity
  8
0
100
AcDbLine
 62
7
  6
CONTINUOUS
 10
0.0
 20
0.0
 11
17.0
 21
0.0
  0
LINE
  5
32C
100
AcDbEntity
  8
0
100
AcDbLine
 62
7
  6
CONTINUOUS
 10
1.0
 20
1.0
 11
16.0
 21
1.0
  0
LINE
  5
32D
100
AcDbEntity
  8
0
100
AcDbLine
 62
7
  6
CONTINUOUS
 10
1.0
 20
10.0
 11
16.0
 21
10.0
  0
LINE
  5
32E
100
AcDbEntity
  8
0
100
AcDbLine
 62
7
  6
CONTINUOUS
 10
0.0
 20
11.0
 11
17.0
 21
11.0
  0
LINE
  5
32F
100
AcDbEntity
  8
0
100
AcDbLine
 62
7
  6
CONTINUOUS
 10
16.0
 20
1.0
 11
16.0
 21
10.0
  0
LINE
  5
330
100
AcDbEntity
  8
0
100
AcDbLine
 62
7
  6
CONTINUOUS
 10
17.0
 20
0.0
 11
17.0
 21
11.0
  0
LINE
  5
331
100
AcDbEntity
  8
0
100
AcDbLine
 62
7
  6
CONTINUOUS
 10
6.933972138
 20
4.7288353552
 11
9.2430272561
 21
4.7288353552
  0
LINE
  5
332
100
AcDbEntity
  8
0
100
AcDbLine
 62
7
  6
CONTINUOUS
 10
6.0215705632
 20
8.1471424419
 11
6.0215705632
 21
5.64123693
  0
LINE
  5
333
100
AcDbEntity
  8
0
100
AcDbLine
 62
7
  6
CONTINUOUS
 10
6.1465705632
 20
5.51623693
 11
6.683972138
 21
5.51623693
  0
LINE
  5
334
100
AcDbEntity
  8
0
100
AcDbLine
 62
7
  6
CONTINUOUS
 10
6.808972138
 20
4.8538353552
 11
6.808972138
 21
5.39123693
  0
LINE
  5
335
100
AcDbEntity
  8
0
100
AcDbLine
 62
7
  6
CONTINUOUS
 10
7.9802319805
 20
6.5693865363
 11
7.6455863112
 21
6.5693865363
  0
LINE
  5
336
100
AcDbEntity
  8
0
100
AcDbLine
 62
7
  6
CONTINUOUS
 10
6.4251138702
 20
6.5693865363
 11
6.7597595395
 21
6.5693865363
  0
LINE
  5
337
100
AcDbEntity
  8
0
100
AcDbLine
 62
7
  6
CONTINUOUS
 10
6.7597595395
 20
6.7071818119
 11
6.4251138702
 21
6.7071818119
  0
LINE
  5
338
100
AcDbEntity
  8
0
100
AcDbLine
 62
7
  6
CONTINUOUS
 10
7.6455863112
 20
6.7071818119
 11
7.9802319805
 21
6.7071818119
  0
LINE
  5
339
100
AcDbEntity
  8
0
100
AcDbLine
 62
7
  6
CONTINUOUS
 10
7.0451926104
 20
6.7760794497
 11
7.3601532403
 21
6.7760794497
  0
LINE
  5
33A
100
AcDbEntity
  8
DEFAULT_3
100
AcDbLine
 62
7
  6
PHANTOM
 10
8.777476075
 20
8.5332593153
 11
8.777476075
 21
4.4790177271
  0
LINE
  5
33B
100
AcDbEntity
  8
0
100
AcDbLine
 62
7
  6
CONTINUOUS
 10
7.3601532403
 20
7.7209613395
 11
7.0451926104
 21
7.7209613395
  0
LINE
  5
33C
100
AcDbEntity
  8
0
100
AcDbLine
 62
7
  6
CONTINUOUS
 10
6.7597595395
 20
7.7898589773
 11
6.4251138702
 21
7.7898589773
  0
LINE
  5
33D
100
AcDbEntity
  8
0
100
AcDbLine
 62
7
  6
CONTINUOUS
 10
7.6455863112
 20
7.7898589773
 11
7.9802319805
 21
7.7898589773
  0
LINE
  5
33E
100
AcDbEntity
  8
0
100
AcDbLine
 62
7
  6
CONTINUOUS
 10
7.9802319805
 20
7.9276542529
 11
7.6455863112
 21
7.9276542529
  0
LINE
  5
33F
100
AcDbEntity
  8
0
100
AcDbLine
 62
7
  6
CONTINUOUS
 10
6.4251138702
 20
7.9276542529
 11
6.7597595395
 21
7.9276542529
  0
LINE
  5
340
100
AcDbEntity
  8
0
100
AcDbLine
 62
7
  6
CONTINUOUS
 10
9.3680272561
 20
4.8538353552
 11
9.3680272561
 21
8.1471424419
  0
LINE
  5
341
100
AcDbEntity
  8
0
100
AcDbLine
 62
7
  6
CONTINUOUS
 10
9.2430272561
 20
8.2721424419
 11
6.1465705632
 21
8.2721424419
  0
LINE
  5
342
100
AcDbEntity
  8
0
100
AcDbLine
 62
7
  6
CONTINUOUS
 10
11.4281432579
 20
4.7288353552
 11
11.1921432579
 21
4.7288353552
  0
LINE
  5
343
100
AcDbEntity
  8
0
100
AcDbLine
 62
7
  6
CONTINUOUS
 10
11.1921432579
 20
4.8100361426
 11
11.3771432579
 21
4.8100361426
  0
LINE
  5
344
100
AcDbEntity
  8
0
100
AcDbLine
 62
7
  6
CONTINUOUS
 10
11.3771432579
 20
4.8371030718
 11
11.4281432579
 21
4.8371030718
  0
LINE
  5
345
100
AcDbEntity
  8
0
100
AcDbLine
 62
7
  6
CONTINUOUS
 10
11.3771432579
 20
5.4079692135
 11
11.4281432579
 21
5.4079692135
  0
LINE
  5
346
100
AcDbEntity
  8
0
100
AcDbLine
 62
7
  6
CONTINUOUS
 10
11.1921432579
 20
5.4350361426
 11
11.3771432579
 21
5.4350361426
  0
LINE
  5
347
100
AcDbEntity
  8
0
100
AcDbLine
 62
7
  6
CONTINUOUS
 10
11.1921432579
 20
8.2721424419
 11
11.1921432579
 21
4.7288353552
  0
LINE
  5
348
100
AcDbEntity
  8
0
100
AcDbLine
 62
7
  6
CONTINUOUS
 10
11.3771432579
 20
5.4350361426
 11
11.3771432579
 21
4.8100361426
  0
LINE
  5
349
100
AcDbEntity
  8
0
100
AcDbLine
 62
7
  6
CONTINUOUS
 10
11.4281432579
 20
8.2721424419
 11
11.4281432579
 21
4.7288353552
  0
LINE
  5
34A
100
AcDbEntity
  8
0
100
AcDbLine
 62
7
  6
CONTINUOUS
 10
11.4281432579
 20
8.2721424419
 11
11.1921432579
 21
8.2721424419
  0
ARC
  5
34B
100
AcDbEntity
  8
0
100
AcDbCircle
 62
7
  6
CONTINUOUS
 10
7.3601532403
 20
7.2485203946
 40
0.4724409449
100
AcDbArc
 50
270.0
 51
90.0
  0
ARC
  5
34C
100
AcDbEntity
  8
0
100
AcDbCircle
 62
7
  6
CONTINUOUS
 10
7.0451926104
 20
7.2485203946
 40
0.4724409449
100
AcDbArc
 50
90.0
 51
270.0
  0
CIRCLE
  5
34D
100
AcDbEntity
  8
0
100
AcDbCircle
 62
7
  6
CONTINUOUS
 10
8.777476075
 20
5.1225361426
 40
0.3125
  0
CIRCLE
  5
34E
100
AcDbEntity
  8
0
100
AcDbCircle
 62
7
  6
CONTINUOUS
 10
8.777476075
 20
5.1225361426
 40
0.2854330709
  0
ARC
  5
34F
100
AcDbEntity
  8
0
100
AcDbCircle
 62
7
  6
CONTINUOUS
 10
6.683972138
 20
5.39123693
 40
0.125
100
AcDbArc
 50
0.0
 51
90.0
  0
ARC
  5
350
100
AcDbEntity
  8
0
100
AcDbCircle
 62
7
  6
CONTINUOUS
 10
9.2430272561
 20
8.1471424419
 40
0.125
100
AcDbArc
 50
0.0
 51
90.0
  0
ARC
  5
351
100
AcDbEntity
  8
0
100
AcDbCircle
 62
7
  6
CONTINUOUS
 10
6.1465705632
 20
8.1471424419
 40
0.125
100
AcDbArc
 50
90.0
 51
180.0
  0
ARC
  5
352
100
AcDbEntity
  8
0
100
AcDbCircle
 62
7
  6
CONTINUOUS
 10
6.1465705632
 20
5.64123693
 40
0.125
100
AcDbArc
 50
180.0
 51
270.0
  0
ARC
  5
353
100
AcDbEntity
  8
0
100
AcDbCircle
 62
7
  6
CONTINUOUS
 10
6.933972138
 20
4.8538353552
 40
0.125
100
AcDbArc
 50
180.0
 51
270.0
  0
ARC
  5
354
100
AcDbEntity
  8
0
100
AcDbCircle
 62
7
  6
CONTINUOUS
 10
9.2430272561
 20
4.8538353552
 40
0.125
100
AcDbArc
 50
270.0
 51
360.0
  0
CIRCLE
  5
355
100
AcDbEntity
  8
02___PRT_ALL_AXES
100
AcDbCircle
 62
7
  6
CONTINUOUS
 10
6.4152713506
 20
5.9099377174
 40
0.1131889764
  0
CIRCLE
  5
356
100
AcDbEntity
  8
02___PRT_ALL_AXES
100
AcDbCircle
 62
7
  6
CONTINUOUS
 10
7.5963737128
 20
5.9099377174
 40
0.1131889764
  0
ARC
  5
357
100
AcDbEntity
  8
0
100
AcDbCircle
 62
7
  6
CONTINUOUS
 10
7.6455863112
 20
7.8587566151
 40
0.0688976378
100
AcDbArc
 50
90.0
 51
270.0
  0
ARC
  5
358
100
AcDbEntity
  8
0
100
AcDbCircle
 62
7
  6
CONTINUOUS
 10
7.9802319805
 20
7.8587566151
 40
0.0688976378
100
AcDbArc
 50
270.0
 51
90.0
  0
ARC
  5
359
100
AcDbEntity
  8
0
100
AcDbCircle
 62
7
  6
CONTINUOUS
 10
6.7597595395
 20
7.8587566151
 40
0.0688976378
100
AcDbArc
 50
270.0
 51
90.0
  0
ARC
  5
35A
100
AcDbEntity
  8
0
100
AcDbCircle
 62
7
  6
CONTINUOUS
 10
6.4251138702
 20
7.8587566151
 40
0.0688976378
100
AcDbArc
 50
90.0
 51
270.0
  0
ARC
  5
35B
100
AcDbEntity
  8
0
100
AcDbCircle
 62
7
  6
CONTINUOUS
 10
7.6455863112
 20
6.6382841741
 40
0.0688976378
100
AcDbArc
 50
90.0
 51
270.0
  0
ARC
  5
35C
100
AcDbEntity
  8
0
100
AcDbCircle
 62
7
  6
CONTINUOUS
 10
7.9802319805
 20
6.6382841741
 40
0.0688976378
100
AcDbArc
 50
270.0
 51
90.0
  0
ARC
  5
35D
100
AcDbEntity
  8
0
100
AcDbCircle
 62
7
  6
CONTINUOUS
 10
6.7597595395
 20
6.6382841741
 40
0.0688976378
100
AcDbArc
 50
270.0
 51
90.0
  0
ARC
  5
35E
100
AcDbEntity
  8
0
100
AcDbCircle
 62
7
  6
CONTINUOUS
 10
6.4251138702
 20
6.6382841741
 40
0.0688976378
100
AcDbArc
 50
90.0
 51
270.0
  0
CIRCLE
  5
35F
100
AcDbEntity
  8
02___PRT_ALL_AXES
100
AcDbCircle
 62
7
  6
CONTINUOUS
 10
8.352476075
 20
5.1225361426
 40
0.0492125984
  0
ENDSEC
  0
SECTION
  2
OBJECTS
  0
DICTIONARY
  5
C
100
AcDbDictionary
280
0
281
1
  3
ACAD_GROUP
350
D
  3
ACAD_MLINESTYLE
350
17
  3
ACAD_LAYOUT
350
1A
  3
ACAD_PLOTSETTINGS
350
19
  3
ACAD_PLOTSTYLENAME
350
E
  3
ACAD_IMAGE_DICT
350
       362
  3
ACAD_IMAGE_VARS
350
       363
  0
IMAGEDEF_REACTOR
  5
360
100
AcDbRasterImageDefReactor
 90
2
330
2C6
  0
IMAGEDEF_REACTOR
  5
361
100
AcDbRasterImageDefReactor
 90
2
330
2C7
  0
DICTIONARY
  5
D
102
{ACAD_REACTORS
330
C
102
}
100
AcDbDictionary
280
0
281
1
  0
ACDBDICTIONARYWDFLT
  5
E
102
{ACAD_REACTORS
330
C
102
}
100
AcDbDictionary
281
1
  3
Normal
350
F
100
AcDbDictionaryWithDefault
340
F
  0
DICTIONARY
  5
362
330
C
100
AcDbDictionary
281
1
  3
b17017_rev_1_img_1
350
       366
  3
b17017_rev_1_img_2
350
       367
  0
RASTERVARIABLES
  5
363
330
C
100
AcDbRasterVariables
 90
0
 70
0
 71
1
 72
5
  0
DICTIONARY
  5
17
102
{ACAD_REACTORS
330
C
102
}
100
AcDbDictionary
280
0
281
1
  3
Standard
350
18
  0
DICTIONARY
  5
19
102
{ACAD_REACTORS
330
C
102
}
100
AcDbDictionary
281
1
  0
DICTIONARY
  5
1A
102
{ACAD_REACTORS
330
C
102
}
100
AcDbDictionary
281
1
  3
Model
350
364
  3
Layout1
350
365
  0
ACDBPLACEHOLDER
  5
F
102
{ACAD_REACTORS
330
E
102
}
  0
MLINESTYLE
  5
18
102
{ACAD_REACTORS
330
17
102
}
100
AcDbMlineStyle
  2
STANDARD
 70
0
  3

 62
256
 51
90.0
 52
90.0
 71
2
 49
0.5
 62
256
  6
BYLAYER
 49
-0.5
 62
256
  6
BYLAYER
  0
LAYOUT
  5
364
102
{ACAD_REACTORS
330
1A
102
}
100
AcDbPlotSettings
  1

  2
none_device
  4
ANSI_B_(17.00_x_11.00_Inches)
  6

 40
0.0
 41
0.0
 42
0.0
 43
0.0
 44
431.8
 45
279.4
 46
0.0
 47
0.0
 48
0.0
 49
0.0
140
0.0
141
0.0
142
1.0
143
1.0
 70
1024
 72
0
 73
0
 74
0
  7

 75
0
147
1.0
148
0.0
149
0.0
100
AcDbLayout
  1
Model
 70
0
 71
0
 10
0.0
 20
0.0
 11
17.0
 21
11.0
 12
0.0
 22
0.0
 32
0.0
 14
0.0
 24
0.0
 34
0.0
 15
0.0
 25
0.0
 35
0.0
146
0.0
 13
0.0
 23
0.0
 33
0.0
 16
1.0
 26
0.0
 36
0.0
 17
0.0
 27
1.0
 37
0.0
 76
0
330
20D
345
0
346
0
  0
LAYOUT
  5
365
102
{ACAD_REACTORS
330
1A
102
}
100
AcDbPlotSettings
  1

  2
none_device
  4
ANSI_B_(17.00_x_11.00_Inches)
  6

 40
0.0
 41
0.0
 42
0.0
 43
0.0
 44
431.8
 45
279.4
 46
0.0
 47
0.0
 48
0.0
 49
0.0
140
0.0
141
0.0
142
1.0
143
1.0
 70
0
 72
0
 73
0
 74
0
  7

 75
0
147
1.0
148
0.0
149
0.0
100
AcDbLayout
  1
Layout1
 70
0
 71
1
 10
0.0
 20
0.0
 11
17.0
 21
11.0
 12
0.0
 22
0.0
 32
0.0
 14
0.0
 24
0.0
 34
0.0
 15
0.0
 25
0.0
 35
0.0
146
0.0
 13
0.0
 23
0.0
 33
0.0
 16
1.0
 26
0.0
 36
0.0
 17
0.0
 27
1.0
 37
0.0
 76
0
330
20E
345
0
346
0
  0
IMAGEDEF
  5
366
102
{ACAD_REACTORS
330
362
330
360
102
}
100
AcDbRasterImageDef
 90
0
  1
b17017_rev_1_img_1.jpg
 10
514.0
 20
162.0
 11
0.0066666667
 21
0.0066666667
280
1
281
0
  0
IMAGEDEF
  5
367
102
{ACAD_REACTORS
330
362
330
361
102
}
100
AcDbRasterImageDef
 90
0
  1
b17017_rev_1_img_2.jpg
 10
106.0
 20
127.0
 11
0.0066666667
 21
0.0066666667
280
1
281
0
  0
ENDSEC
  0
EOF
