999
DXF file: C:\inetpub\wwwroot\eng-serve\buildlog\cnc_laser\drawings\z_lift_kit_rev_4.dxf
999
Pro/ENGINEER 2010100 by Parametric Technology Corporation
  0
SECTION
  2
HEADER
  9
$EXTMAX
 10
22.0
 20
17.0
 30
0.0
  9
$EXTMIN
 10
0.0
 20
0.0
 30
0.0
  9
$LIMMIN
 10
0.0
 20
0.0
  9
$LIMMAX
 10
22.0
 20
17.0
  9
$VIEWCTR
 10
11.0
 20
8.5
  9
$VIEWSIZE
 40
17.0
  9
$CLAYER
  8
0
  9
$LTSCALE
 40
1.21
  9
$CELTYPE
  6
BYLAYER
  9
$DIMSCALE
 40
1.0
  9
$DIMASZ
 40
0.1875
  9
$DIMEXO
 40
0.1375
  9
$DIMDLI
 40
0.836
  9
$DIMEXE
 40
0.396
  9
$DIMCEN
 40
0.198
  9
$DIMLFAC
 40
1.0
  9
$DIMBLK
  1
_FILLED
  9
$DIMTXT
 40
0.15625
  9
$PDMODE
 70
3
  9
$PDSIZE
 40
0.3125
  9
$TILEMODE
 70
1
  0
ENDSEC
  0
SECTION
  2
TABLES
  0
TABLE
  2
LTYPE
 70
6
  0
LTYPE
  2
BYBLOCK
 70
0
  3

 72
65
 73
0
 40
0.0
  0
LTYPE
  2
BYLAYER
 70
0
  3

 72
65
 73
0
 40
0.0
  0
LTYPE
  2
CONTINUOUS
 70
64
  3
Solid line
 72
65
 73
0
 40
0.0
  0
LTYPE
  2
CENTER
 70
64
  3
____ _ ____ _ ____ _ ____ _ ____ _ ____ _ ____
 72
65
 73
4
 40
0.6
 49
0.375
 49
-0.075
 49
0.075
 49
-0.075
  0
LTYPE
  2
HIDDEN
 70
64
  3
- - - - - - - - - - - - - - - - - - - -
 72
65
 73
2
 40
0.2
 49
0.1
 49
-0.1
  0
LTYPE
  2
PHANTOM
 70
64
  3
_____ _ _ _____ _ _ _____ _ _ _____
 72
65
 73
6
 40
0.8
 49
0.45
 49
-0.05
 49
0.1
 49
-0.05
 49
0.1
 49
-0.05
  0
LTYPE
  2
DOT
 70
64
  3
. . . . . . . . . . . . . . . . . . . .
 72
65
 73
2
 40
0.2
 49
0.1
 49
-0.1
  0
LTYPE
  2
DASHED
 70
64
  3
- - - - - - - - - - - - - - - - - - - -
 72
65
 73
2
 40
0.2
 49
0.1
 49
-0.1
  0
ENDTAB
  0
TABLE
  2
LAYER
 70
36
  0
LAYER
  2
0
 70
0
 62
7
  6
CONTINUOUS
  0
LAYER
  2
DEFAULT_1
 70
0
 62
7
  6
CENTER
  0
LAYER
  2
DEFAULT_2
 70
0
 62
8
  6
HIDDEN
  0
LAYER
  2
DEFAULT_3
 70
0
 62
7
  6
PHANTOM
  0
LAYER
  2
01_ALL_DTM_PLN
 70
0
 62
7
  6
CONTINUOUS
  0
LAYER
  2
01__ASM_ALL_DTM_PLN
 70
0
 62
7
  6
CONTINUOUS
  0
LAYER
  2
01__ASM_DEF_DTM_PLN
 70
0
 62
7
  6
CONTINUOUS
  0
LAYER
  2
01___PRT_ALL_DTM_PLN
 70
0
 62
7
  6
CONTINUOUS
  0
LAYER
  2
01___PRT_DEF_DTM_PLN
 70
0
 62
7
  6
CONTINUOUS
  0
LAYER
  2
02_ALL_AXES
 70
0
 62
7
  6
CONTINUOUS
  0
LAYER
  2
02__ASM_ALL_AXES
 70
0
 62
7
  6
CONTINUOUS
  0
LAYER
  2
02___PRT_ALL_AXES
 70
0
 62
7
  6
CONTINUOUS
  0
LAYER
  2
03_ALL_CURVES
 70
0
 62
7
  6
CONTINUOUS
  0
LAYER
  2
03__ASM_ALL_CURVES
 70
0
 62
7
  6
CONTINUOUS
  0
LAYER
  2
03___PRT_ALL_CURVES
 70
0
 62
7
  6
CONTINUOUS
  0
LAYER
  2
04_ALL_DTM_PNT
 70
0
 62
7
  6
CONTINUOUS
  0
LAYER
  2
04__ASM_ALL_DTM_PNT
 70
0
 62
7
  6
CONTINUOUS
  0
LAYER
  2
04___PRT_ALL_DTM_PNT
 70
0
 62
7
  6
CONTINUOUS
  0
LAYER
  2
05_ALL_DTM_CSYS
 70
0
 62
7
  6
CONTINUOUS
  0
LAYER
  2
05__ASM_ALL_DTM_CSYS
 70
0
 62
7
  6
CONTINUOUS
  0
LAYER
  2
05__ASM_DEF_DTM_CSYS
 70
0
 62
7
  6
CONTINUOUS
  0
LAYER
  2
05___PRT_ALL_DTM_CSYS
 70
0
 62
7
  6
CONTINUOUS
  0
LAYER
  2
05___PRT_DEF_DTM_CSYS
 70
0
 62
7
  6
CONTINUOUS
  0
LAYER
  2
06_ALL_SURFS
 70
0
 62
7
  6
CONTINUOUS
  0
LAYER
  2
06__ASM_ALL_SURFS
 70
0
 62
7
  6
CONTINUOUS
  0
LAYER
  2
06___PRT_ALL_SURFS
 70
0
 62
7
  6
CONTINUOUS
  0
LAYER
  2
07__ASM_ALL_SKELETONS
 70
0
 62
7
  6
CONTINUOUS
  0
LAYER
  2
BALLOONS
 70
0
 62
7
  6
CONTINUOUS
  0
LAYER
  2
DATUM_PLANES
 70
0
 62
7
  6
CONTINUOUS
  0
ENDTAB
  0
TABLE
  2
STYLE
 70
1
  0
STYLE
  2
STANDARD
 70
0
 40
0.0
 41
1.0
 50
0.0
 71
0
 42
0.2
  3
veramono.ttf
  4

  0
STYLE
  2
TEXTSTYLE_1
 70
0
 40
0.0
 41
0.8
 50
0.0
 71
0
 42
0.2
  3
gdt
  4

  0
ENDTAB
  0
ENDSEC
  0
SECTION
  2
BLOCKS
  0
BLOCK
  8
0
  2
_FILLED
 70
64
 10
0.0
 20
0.0
  0
SOLID
  8
0
  6
BYBLOCK
 62
0
 10
0.0
 20
0.0
 11
-1.0
 21
0.1666666667
 12
-1.0
 22
-0.1666666667
 13
-1.0
 23
-0.1666666667
  0
ENDBLK
  8
0
  6
BYBLOCK
 62
0
  0
ENDSEC
  0
SECTION
  2
ENTITIES
  0
TEXT
  8
BALLOONS
 62
2
  6
CONTINUOUS
 10
1.201805254
 20
4.8382474317
  7
STANDARD
 40
0.15625
  1
countersink back of part
 41
1.0
 72
0
  0
TEXT
  8
BALLOONS
 62
2
  6
CONTINUOUS
 10
1.201805254
 20
4.6038724317
  7
STANDARD
 40
0.15625
  1
for flat heat screws
 41
1.0
 72
0
  0
TEXT
  8
BALLOONS
 62
2
  6
CONTINUOUS
 10
11.3356395618
 20
3.782496444
  7
STANDARD
 40
0.15625
  1
Notes:
 41
1.0
 72
0
  0
TEXT
  8
BALLOONS
 62
2
  6
CONTINUOUS
 10
11.3356395618
 20
3.548121444
  7
STANDARD
 40
0.15625
  1
1.  this file can be used as input to a CAM program.  All
 41
1.0
 72
0
  0
TEXT
  8
BALLOONS
 62
2
  6
CONTINUOUS
 10
11.3356395618
 20
3.313746444
  7
STANDARD
 40
0.15625
  1
parts are 1:1 and the correct quantity.
 41
1.0
 72
0
  0
TEXT
  8
BALLOONS
 62
2
  6
CONTINUOUS
 10
11.3356395618
 20
3.079371444
  7
STANDARD
 40
0.15625
  1
2.  Material is 6mm acrylic
 41
1.0
 72
0
  0
TEXT
  8
BALLOONS
 62
2
  6
CONTINUOUS
 10
15.9102331814
 20
1.3352476747
  7
STANDARD
 40
0.15625
  1
www.buildlog.net
 41
1.0
 72
0
  0
TEXT
  8
BALLOONS
 62
2
  6
CONTINUOUS
 10
15.9316065311
 20
1.1004183076
  7
STANDARD
 40
0.1
  1
The work is licensed under a Creative
 41
1.0
 72
0
  0
TEXT
  8
BALLOONS
 62
2
  6
CONTINUOUS
 10
15.9316065311
 20
0.9504183076
  7
STANDARD
 40
0.1
  1
Commons Attribute-Share Alike 3.0 License
 41
1.0
 72
0
  0
TEXT
  8
BALLOONS
 62
2
  6
CONTINUOUS
 10
14.2808527213
 20
16.0681617552
  7
STANDARD
 40
0.15625
  1
Rev 4 10/25/2010 update to NEMA17
 41
1.0
 72
0
  0
TEXT
  8
BALLOONS
 62
2
  6
CONTINUOUS
 10
14.7905913476
 20
13.6884404779
  7
STANDARD
 40
0.15625
  1
#6-32 Tapped Thru 
 41
1.0
 72
0
  0
TEXT
  8
BALLOONS
 62
2
  6
CONTINUOUS
 10
14.7905913476
 20
13.4540654779
  7
STANDARD
 40
0.15625
  1
3 Places per part
 41
1.0
 72
0
  0
LINE
  8
BALLOONS
 62
2
  6
CONTINUOUS
 10
14.1002493609
 20
12.7193277771
 11
14.5405913476
 21
13.7665654779
  0
LINE
  8
BALLOONS
 62
2
  6
CONTINUOUS
 10
14.5405913476
 20
13.7665654779
 11
14.7905913476
 21
13.7665654779
  0
SOLID
  8
BALLOONS
 62
2
  6
CONTINUOUS
 10
14.1441188894
 20
12.9042825742
 11
14.1002493609
 21
12.7193277771
 12
14.2017329031
 22
12.8800570624
 13
14.2017329031
 23
12.8800570624
  0
TEXT
  8
BALLOONS
 62
2
  6
CONTINUOUS
 10
1.711338948
 20
5.5111810954
  7
STANDARD
 40
0.15625
  1
NEMA 17 Pattern
 41
1.0
 72
0
  0
LINE
  8
BALLOONS
 62
2
  6
CONTINUOUS
 10
1.0862398053
 20
8.2905228166
 11
1.461338948
 21
5.5893060954
  0
LINE
  8
BALLOONS
 62
2
  6
CONTINUOUS
 10
1.461338948
 20
5.5893060954
 11
1.711338948
 21
5.5893060954
  0
SOLID
  8
BALLOONS
 62
2
  6
CONTINUOUS
 10
1.1429821562
 20
8.1091030875
 11
1.0862398053
 21
8.2905228166
 12
1.0810761711
 22
8.1005066347
 13
1.0810761711
 23
8.1005066347
  0
TEXT
  8
BALLOONS
 62
2
  6
CONTINUOUS
 10
1.3114740681
 20
5.2035927263
  7
STANDARD
 40
0.15625
  1
NEMA 23 Pattern
 41
1.0
 72
0
  0
LINE
  8
BALLOONS
 62
2
  6
CONTINUOUS
 10
0.682726133
 20
7.9328155339
 11
1.0614740681
 21
5.2817177263
  0
LINE
  8
BALLOONS
 62
2
  6
CONTINUOUS
 10
1.0614740681
 20
5.2817177263
 11
1.3114740681
 21
5.2817177263
  0
SOLID
  8
BALLOONS
 62
2
  6
CONTINUOUS
 10
0.7401798769
 20
7.7516198392
 11
0.682726133
 21
7.9328155339
 12
0.6783080979
 22
7.7427805543
 13
0.6783080979
 23
7.7427805543
  0
TEXT
  8
BALLOONS
 62
2
  6
CONTINUOUS
 10
6.9344543532
 20
5.3285109826
  7
STANDARD
 40
0.15625
  1
#6-32 Tapped Thru
 41
1.0
 72
0
  0
TEXT
  8
BALLOONS
 62
2
  6
CONTINUOUS
 10
6.9344543532
 20
5.0941359826
  7
STANDARD
 40
0.15625
  1
1 Place per part
 41
1.0
 72
0
  0
LINE
  8
BALLOONS
 62
2
  6
CONTINUOUS
 10
5.7377723874
 20
9.4418407723
 11
6.6844543532
 21
5.4066359826
  0
LINE
  8
BALLOONS
 62
2
  6
CONTINUOUS
 10
6.6844543532
 20
5.4066359826
 11
6.9344543532
 21
5.4066359826
  0
SOLID
  8
BALLOONS
 62
2
  6
CONTINUOUS
 10
5.8110221258
 20
9.2664347053
 11
5.7377723874
 21
9.4418407723
 12
5.7501742263
 22
9.2521594424
 13
5.7501742263
 23
9.2521594424
  0
LINE
  8
0
 62
7
  6
CONTINUOUS
 10
0.0
 20
0.0
 11
0.0
 21
17.0
  0
LINE
  8
0
 62
7
  6
CONTINUOUS
 10
0.0
 20
0.0
 11
22.0
 21
0.0
  0
LINE
  8
0
 62
7
  6
CONTINUOUS
 10
0.0
 20
17.0
 11
22.0
 21
17.0
  0
LINE
  8
0
 62
7
  6
CONTINUOUS
 10
22.0
 20
0.0
 11
22.0
 21
17.0
  0
LINE
  8
0
 62
7
  6
CONTINUOUS
 10
0.5321349558
 20
12.6570243363
 11
0.5321349558
 21
11.0070243363
  0
LINE
  8
0
 62
7
  6
CONTINUOUS
 10
0.5321349558
 20
6.3070243363
 11
0.5321349558
 21
10.3070243363
  0
LINE
  8
0
 62
7
  6
CONTINUOUS
 10
1.1646349558
 20
11.0620243363
 11
1.1646349558
 21
11.4520243363
  0
LINE
  8
0
 62
7
  6
CONTINUOUS
 10
1.2691349558
 20
12.4793138976
 11
1.2691349558
 21
12.2070243363
  0
LINE
  8
0
 62
7
  6
CONTINUOUS
 10
1.3591349558
 20
12.2070243363
 11
1.3591349558
 21
12.4372039551
  0
LINE
  8
0
 62
7
  6
CONTINUOUS
 10
1.3996349558
 20
11.4520243363
 11
1.3996349558
 21
11.0620243363
  0
LINE
  8
0
 62
7
  6
CONTINUOUS
 10
1.4551349558
 20
13.1070243363
 11
1.4551349558
 21
12.8768447175
  0
LINE
  8
0
 62
7
  6
CONTINUOUS
 10
1.5451349558
 20
12.8347347749
 11
1.5451349558
 21
13.1070243363
  0
LINE
  8
0
 62
7
  6
CONTINUOUS
 10
3.0191349558
 20
12.8347347749
 11
3.0191349558
 21
13.1070243363
  0
LINE
  8
0
 62
7
  6
CONTINUOUS
 10
3.1091349558
 20
13.1070243363
 11
3.1091349558
 21
12.8768447175
  0
LINE
  8
0
 62
7
  6
CONTINUOUS
 10
3.1646349558
 20
11.0620243363
 11
3.1646349558
 21
11.4520243363
  0
LINE
  8
0
 62
7
  6
CONTINUOUS
 10
3.2051349558
 20
12.2070243363
 11
3.2051349558
 21
12.4372039551
  0
LINE
  8
0
 62
7
  6
CONTINUOUS
 10
3.2951349558
 20
12.4793138976
 11
3.2951349558
 21
12.2070243363
  0
LINE
  8
0
 62
7
  6
CONTINUOUS
 10
3.3996349558
 20
11.4520243363
 11
3.3996349558
 21
11.0620243363
  0
LINE
  8
0
 62
7
  6
CONTINUOUS
 10
4.0321349558
 20
11.0070243363
 11
4.0321349558
 21
12.6570243363
  0
LINE
  8
0
 62
7
  6
CONTINUOUS
 10
4.5321349558
 20
10.0570243363
 11
4.5321349558
 21
6.5570243363
  0
LINE
  8
0
 62
7
  6
CONTINUOUS
 10
4.7321349558
 20
13.1320243363
 11
4.7321349558
 21
10.1320243363
  0
LINE
  8
0
 62
7
  6
CONTINUOUS
 10
4.7321349558
 20
9.1820243363
 11
4.7321349558
 21
6.3070243363
  0
LINE
  8
0
 62
7
  6
CONTINUOUS
 10
6.4941349558
 20
12.3293138976
 11
6.4941349558
 21
12.0570243363
  0
LINE
  8
0
 62
7
  6
CONTINUOUS
 10
6.4941349558
 20
10.9347347749
 11
6.4941349558
 21
11.2070243363
  0
LINE
  8
0
 62
7
  6
CONTINUOUS
 10
6.5841349558
 20
11.2070243363
 11
6.5841349558
 21
10.9768447175
  0
LINE
  8
0
 62
7
  6
CONTINUOUS
 10
6.5841349558
 20
12.0570243363
 11
6.5841349558
 21
12.2872039551
  0
LINE
  8
0
 62
7
  6
CONTINUOUS
 10
6.6801349558
 20
12.9570243363
 11
6.6801349558
 21
12.7268447175
  0
LINE
  8
0
 62
7
  6
CONTINUOUS
 10
6.6801349558
 20
10.3070243363
 11
6.6801349558
 21
10.5372039551
  0
LINE
  8
0
 62
7
  6
CONTINUOUS
 10
6.7321349558
 20
6.3070243363
 11
6.7321349558
 21
9.1820243363
  0
LINE
  8
0
 62
7
  6
CONTINUOUS
 10
6.7701349558
 20
10.5793138976
 11
6.7701349558
 21
10.3070243363
  0
LINE
  8
0
 62
7
  6
CONTINUOUS
 10
6.7701349558
 20
12.6847347749
 11
6.7701349558
 21
12.9570243363
  0
LINE
  8
0
 62
7
  6
CONTINUOUS
 10
6.9321349558
 20
9.1820243363
 11
6.9321349558
 21
6.3070243363
  0
LINE
  8
0
 62
7
  6
CONTINUOUS
 10
7.3821349558
 20
10.6320243363
 11
7.3821349558
 21
12.6320243363
  0
LINE
  8
0
 62
7
  6
CONTINUOUS
 10
4.0321349558
 20
6.0570243363
 11
0.7821349558
 21
6.0570243363
  0
LINE
  8
0
 62
7
  6
CONTINUOUS
 10
4.9821349558
 20
6.0570243363
 11
6.4821349558
 21
6.0570243363
  0
LINE
  8
0
 62
7
  6
CONTINUOUS
 10
7.1821349558
 20
6.0570243363
 11
8.6821349558
 21
6.0570243363
  0
LINE
  8
0
 62
7
  6
CONTINUOUS
 10
9.3821349558
 20
6.0570243363
 11
10.8821349558
 21
6.0570243363
  0
LINE
  8
0
 62
7
  6
CONTINUOUS
 10
11.5821349558
 20
6.0570243363
 11
12.5821349558
 21
6.0570243363
  0
LINE
  8
0
 62
7
  6
CONTINUOUS
 10
13.2821349558
 20
6.0570243363
 11
14.7821349558
 21
6.0570243363
  0
LINE
  8
0
 62
7
  6
CONTINUOUS
 10
15.4821349558
 20
6.0570243363
 11
16.9821349558
 21
6.0570243363
  0
LINE
  8
0
 62
7
  6
CONTINUOUS
 10
17.6821349558
 20
6.0570243363
 11
19.1821349558
 21
6.0570243363
  0
LINE
  8
0
 62
7
  6
CONTINUOUS
 10
19.8821349558
 20
6.0570243363
 11
21.3821349558
 21
6.0570243363
  0
LINE
  8
0
 62
7
  6
CONTINUOUS
 10
7.5821349558
 20
13.1320243363
 11
7.5821349558
 21
10.1320243363
  0
LINE
  8
0
 62
7
  6
CONTINUOUS
 10
8.9321349558
 20
6.3070243363
 11
8.9321349558
 21
9.1820243363
  0
LINE
  8
0
 62
7
  6
CONTINUOUS
 10
9.1321349558
 20
9.1820243363
 11
9.1321349558
 21
6.3070243363
  0
LINE
  8
0
 62
7
  6
CONTINUOUS
 10
9.3441349558
 20
12.3293138976
 11
9.3441349558
 21
12.0570243363
  0
LINE
  8
0
 62
7
  6
CONTINUOUS
 10
9.3441349558
 20
10.9347347749
 11
9.3441349558
 21
11.2070243363
  0
LINE
  8
0
 62
7
  6
CONTINUOUS
 10
9.4341349558
 20
11.2070243363
 11
9.4341349558
 21
10.9768447175
  0
LINE
  8
0
 62
7
  6
CONTINUOUS
 10
9.4341349558
 20
12.0570243363
 11
9.4341349558
 21
12.2872039551
  0
LINE
  8
0
 62
7
  6
CONTINUOUS
 10
9.5301349558
 20
12.9570243363
 11
9.5301349558
 21
12.7268447175
  0
LINE
  8
0
 62
7
  6
CONTINUOUS
 10
9.5301349558
 20
10.3070243363
 11
9.5301349558
 21
10.5372039551
  0
LINE
  8
0
 62
7
  6
CONTINUOUS
 10
9.6201349558
 20
10.5793138976
 11
9.6201349558
 21
10.3070243363
  0
LINE
  8
0
 62
7
  6
CONTINUOUS
 10
9.6201349558
 20
12.6847347749
 11
9.6201349558
 21
12.9570243363
  0
LINE
  8
0
 62
7
  6
CONTINUOUS
 10
10.2321349558
 20
10.6320243363
 11
10.2321349558
 21
12.6320243363
  0
LINE
  8
0
 62
7
  6
CONTINUOUS
 10
10.4321349558
 20
13.1320243363
 11
10.4321349558
 21
10.1320243363
  0
LINE
  8
0
 62
7
  6
CONTINUOUS
 10
11.1321349558
 20
6.3070243363
 11
11.1321349558
 21
9.1820243363
  0
LINE
  8
0
 62
7
  6
CONTINUOUS
 10
12.5821349558
 20
9.1820243363
 11
11.5821349558
 21
9.1820243363
  0
LINE
  8
0
 62
7
  6
CONTINUOUS
 10
10.6321349558
 20
9.6820243363
 11
9.6321349558
 21
9.6820243363
  0
LINE
  8
0
 62
7
  6
CONTINUOUS
 10
8.4321349558
 20
9.6820243363
 11
7.4321349558
 21
9.6820243363
  0
LINE
  8
0
 62
7
  6
CONTINUOUS
 10
6.2321349558
 20
9.6820243363
 11
5.2321349558
 21
9.6820243363
  0
LINE
  8
0
 62
7
  6
CONTINUOUS
 10
11.3321349558
 20
8.9320243363
 11
11.3321349558
 21
6.3070243363
  0
LINE
  8
0
 62
7
  6
CONTINUOUS
 10
11.4651349558
 20
6.6649259111
 11
11.4651349558
 21
6.2739259111
  0
LINE
  8
0
 62
7
  6
CONTINUOUS
 10
11.6991349558
 20
6.2739259111
 11
11.6991349558
 21
6.6649259111
  0
LINE
  8
0
 62
7
  6
CONTINUOUS
 10
4.9821349558
 20
9.8820243363
 11
6.6321349558
 21
9.8820243363
  0
LINE
  8
0
 62
7
  6
CONTINUOUS
 10
7.8321349558
 20
9.8820243363
 11
9.4821349558
 21
9.8820243363
  0
LINE
  8
0
 62
7
  6
CONTINUOUS
 10
10.6821349558
 20
9.8820243363
 11
12.5821349558
 21
9.8820243363
  0
LINE
  8
0
 62
7
  6
CONTINUOUS
 10
11.1271349558
 20
10.5145243363
 11
10.7371349558
 21
10.5145243363
  0
LINE
  8
0
 62
7
  6
CONTINUOUS
 10
8.2771349558
 20
10.5145243363
 11
7.8871349558
 21
10.5145243363
  0
LINE
  8
0
 62
7
  6
CONTINUOUS
 10
5.4271349558
 20
10.5145243363
 11
5.0371349558
 21
10.5145243363
  0
LINE
  8
0
 62
7
  6
CONTINUOUS
 10
0.7821349558
 20
10.5570243363
 11
4.0321349558
 21
10.5570243363
  0
LINE
  8
0
 62
7
  6
CONTINUOUS
 10
12.1933849558
 20
10.5798988511
 11
12.1933849558
 21
10.3070243363
  0
LINE
  8
0
 62
7
  6
CONTINUOUS
 10
12.2833849558
 20
10.3070243363
 11
12.2833849558
 21
10.5373690666
  0
LINE
  8
0
 62
7
  6
CONTINUOUS
 10
12.3808849558
 20
11.2070243363
 11
12.3808849558
 21
10.976679606
  0
LINE
  8
0
 62
7
  6
CONTINUOUS
 10
12.4651349558
 20
7.4523274859
 11
12.4651349558
 21
7.0613274859
  0
LINE
  8
0
 62
7
  6
CONTINUOUS
 10
12.4708849558
 20
10.9341498215
 11
12.4708849558
 21
11.2070243363
  0
LINE
  8
0
 62
7
  6
CONTINUOUS
 10
12.5821349558
 20
12.8820243363
 11
12.5821349558
 21
11.6945243363
  0
LINE
  8
0
 62
7
  6
CONTINUOUS
 10
12.5092604409
 20
10.6182743363
 11
12.7821349558
 21
10.6182743363
  0
LINE
  8
0
 62
7
  6
CONTINUOUS
 10
9.3044245171
 20
10.6190243363
 11
9.0321349558
 21
10.6190243363
  0
LINE
  8
0
 62
7
  6
CONTINUOUS
 10
6.4544245171
 20
10.6190243363
 11
6.1821349558
 21
10.6190243363
  0
LINE
  8
0
 62
7
  6
CONTINUOUS
 10
12.7821349558
 20
10.7082743363
 11
12.5517902254
 21
10.7082743363
  0
LINE
  8
0
 62
7
  6
CONTINUOUS
 10
6.1821349558
 20
10.7090243363
 11
6.4123145745
 21
10.7090243363
  0
LINE
  8
0
 62
7
  6
CONTINUOUS
 10
9.0321349558
 20
10.7090243363
 11
9.2623145745
 21
10.7090243363
  0
LINE
  8
0
 62
7
  6
CONTINUOUS
 10
5.0371349558
 20
10.7495243363
 11
5.4271349558
 21
10.7495243363
  0
LINE
  8
0
 62
7
  6
CONTINUOUS
 10
7.8871349558
 20
10.7495243363
 11
8.2771349558
 21
10.7495243363
  0
LINE
  8
0
 62
7
  6
CONTINUOUS
 10
10.7371349558
 20
10.7495243363
 11
11.1271349558
 21
10.7495243363
  0
LINE
  8
0
 62
7
  6
CONTINUOUS
 10
0.7821349558
 20
10.7570243363
 11
3.7821349558
 21
10.7570243363
  0
LINE
  8
0
 62
7
  6
CONTINUOUS
 10
9.9321349558
 20
10.8050243363
 11
9.701955337
 21
10.8050243363
  0
LINE
  8
0
 62
7
  6
CONTINUOUS
 10
7.0821349558
 20
10.8050243363
 11
6.851955337
 21
10.8050243363
  0
LINE
  8
0
 62
7
  6
CONTINUOUS
 10
11.8821349558
 20
10.8057743363
 11
12.1124796861
 21
10.8057743363
  0
LINE
  8
0
 62
7
  6
CONTINUOUS
 10
6.8098453944
 20
10.8950243363
 11
7.0821349558
 21
10.8950243363
  0
LINE
  8
0
 62
7
  6
CONTINUOUS
 10
9.6598453944
 20
10.8950243363
 11
9.9321349558
 21
10.8950243363
  0
LINE
  8
0
 62
7
  6
CONTINUOUS
 10
12.1550094706
 20
10.8957743363
 11
11.8821349558
 21
10.8957743363
  0
LINE
  8
0
 62
7
  6
CONTINUOUS
 10
12.6991349558
 20
7.0613274859
 11
12.6991349558
 21
7.4523274859
  0
LINE
  8
0
 62
7
  6
CONTINUOUS
 10
12.8321349558
 20
6.3070243363
 11
12.8321349558
 21
8.9320243363
  0
LINE
  8
0
 62
7
  6
CONTINUOUS
 10
13.0321349558
 20
8.3818243363
 11
13.0321349558
 21
6.3070243363
  0
LINE
  8
0
 62
7
  6
CONTINUOUS
 10
13.0821349558
 20
10.3820243363
 11
13.0821349558
 21
11.3195243363
  0
LINE
  8
0
 62
7
  6
CONTINUOUS
 10
12.9571349558
 20
11.4445243363
 11
12.8321349558
 21
11.4445243363
  0
LINE
  8
0
 62
7
  6
CONTINUOUS
 10
6.8098453944
 20
12.3690243363
 11
7.0821349558
 21
12.3690243363
  0
LINE
  8
0
 62
7
  6
CONTINUOUS
 10
9.6598453944
 20
12.3690243363
 11
9.9321349558
 21
12.3690243363
  0
LINE
  8
0
 62
7
  6
CONTINUOUS
 10
9.9321349558
 20
12.4590243363
 11
9.701955337
 21
12.4590243363
  0
LINE
  8
0
 62
7
  6
CONTINUOUS
 10
7.0821349558
 20
12.4590243363
 11
6.851955337
 21
12.4590243363
  0
LINE
  8
0
 62
7
  6
CONTINUOUS
 10
11.1271349558
 20
12.5145243363
 11
10.7371349558
 21
12.5145243363
  0
LINE
  8
0
 62
7
  6
CONTINUOUS
 10
8.2771349558
 20
12.5145243363
 11
7.8871349558
 21
12.5145243363
  0
LINE
  8
0
 62
7
  6
CONTINUOUS
 10
5.4271349558
 20
12.5145243363
 11
5.0371349558
 21
12.5145243363
  0
LINE
  8
0
 62
7
  6
CONTINUOUS
 10
2.9794245171
 20
12.5190243363
 11
2.7071349558
 21
12.5190243363
  0
LINE
  8
0
 62
7
  6
CONTINUOUS
 10
1.5848453944
 20
12.5190243363
 11
1.8571349558
 21
12.5190243363
  0
LINE
  8
0
 62
7
  6
CONTINUOUS
 10
6.1821349558
 20
12.5550243363
 11
6.4123145745
 21
12.5550243363
  0
LINE
  8
0
 62
7
  6
CONTINUOUS
 10
9.0321349558
 20
12.5550243363
 11
9.2623145745
 21
12.5550243363
  0
LINE
  8
0
 62
7
  6
CONTINUOUS
 10
1.8571349558
 20
12.6090243363
 11
1.626955337
 21
12.6090243363
  0
LINE
  8
0
 62
7
  6
CONTINUOUS
 10
2.7071349558
 20
12.6090243363
 11
2.9373145745
 21
12.6090243363
  0
LINE
  8
0
 62
7
  6
CONTINUOUS
 10
9.3044245171
 20
12.6450243363
 11
9.0321349558
 21
12.6450243363
  0
LINE
  8
0
 62
7
  6
CONTINUOUS
 10
6.4544245171
 20
12.6450243363
 11
6.1821349558
 21
12.6450243363
  0
LINE
  8
0
 62
7
  6
CONTINUOUS
 10
3.6071349558
 20
12.7050243363
 11
3.376955337
 21
12.7050243363
  0
LINE
  8
0
 62
7
  6
CONTINUOUS
 10
0.9571349558
 20
12.7050243363
 11
1.1873145745
 21
12.7050243363
  0
LINE
  8
0
 62
7
  6
CONTINUOUS
 10
5.0371349558
 20
12.7495243363
 11
5.4271349558
 21
12.7495243363
  0
LINE
  8
0
 62
7
  6
CONTINUOUS
 10
7.8871349558
 20
12.7495243363
 11
8.2771349558
 21
12.7495243363
  0
LINE
  8
0
 62
7
  6
CONTINUOUS
 10
10.7371349558
 20
12.7495243363
 11
11.1271349558
 21
12.7495243363
  0
LINE
  8
0
 62
7
  6
CONTINUOUS
 10
1.2294245171
 20
12.7950243363
 11
0.9571349558
 21
12.7950243363
  0
LINE
  8
0
 62
7
  6
CONTINUOUS
 10
3.3348453944
 20
12.7950243363
 11
3.6071349558
 21
12.7950243363
  0
LINE
  8
0
 62
7
  6
CONTINUOUS
 10
12.0821349558
 20
13.3820243363
 11
10.6821349558
 21
13.3820243363
  0
LINE
  8
0
 62
7
  6
CONTINUOUS
 10
9.4821349558
 20
13.3820243363
 11
7.8321349558
 21
13.3820243363
  0
LINE
  8
0
 62
7
  6
CONTINUOUS
 10
6.6321349558
 20
13.3820243363
 11
4.9821349558
 21
13.3820243363
  0
LINE
  8
0
 62
7
  6
CONTINUOUS
 10
3.2821349558
 20
13.4070243363
 11
1.2821349558
 21
13.4070243363
  0
LINE
  8
0
 62
7
  6
CONTINUOUS
 10
15.0321349558
 20
6.3070243363
 11
15.0321349558
 21
8.3818243363
  0
LINE
  8
0
 62
7
  6
CONTINUOUS
 10
15.2321349558
 20
8.3818243363
 11
15.2321349558
 21
6.3070243363
  0
LINE
  8
0
 62
7
  6
CONTINUOUS
 10
17.2321349558
 20
6.3070243363
 11
17.2321349558
 21
8.3818243363
  0
LINE
  8
0
 62
7
  6
CONTINUOUS
 10
17.4321349558
 20
8.3818243363
 11
17.4321349558
 21
6.3070243363
  0
LINE
  8
0
 62
7
  6
CONTINUOUS
 10
19.4321349558
 20
6.3070243363
 11
19.4321349558
 21
8.3818243363
  0
LINE
  8
0
 62
7
  6
CONTINUOUS
 10
19.6321349558
 20
8.3818243363
 11
19.6321349558
 21
6.3070243363
  0
LINE
  8
0
 62
7
  6
CONTINUOUS
 10
21.6321349558
 20
6.3070243363
 11
21.6321349558
 21
8.3818243363
  0
ARC
  8
0
 62
7
  6
CONTINUOUS
 10
4.0321349558
 20
6.5570243363
 40
0.5
 50
270.0
 51
360.0
  0
CIRCLE
  8
02___PRT_ALL_AXES
 62
7
  6
CONTINUOUS
 10
3.1065365306
 20
7.0570243363
 40
0.43
  0
ARC
  8
0
 62
7
  6
CONTINUOUS
 10
4.9821349558
 20
6.3070243363
 40
0.25
 50
180.0
 51
270.0
  0
ARC
  8
0
 62
7
  6
CONTINUOUS
 10
0.7821349558
 20
6.3070243363
 40
0.25
 50
180.0
 51
270.0
  0
CIRCLE
  8
02___PRT_ALL_AXES
 62
7
  6
CONTINUOUS
 10
5.1071349558
 20
6.4504259111
 40
0.117
  0
CIRCLE
  8
02___PRT_ALL_AXES
 62
7
  6
CONTINUOUS
 10
5.1071349558
 20
7.2384259111
 40
0.117
  0
CIRCLE
  8
02___PRT_ALL_AXES
 62
7
  6
CONTINUOUS
 10
0.9258357432
 20
6.3070243363
 40
0.117
  0
CIRCLE
  8
02___PRT_ALL_AXES
 62
7
  6
CONTINUOUS
 10
1.713237318
 20
6.3070243363
 40
0.117
  0
CIRCLE
  8
02___PRT_ALL_AXES
 62
7
  6
CONTINUOUS
 10
3.6690365306
 20
7.0570243363
 40
0.0725
  0
CIRCLE
  8
02___PRT_ALL_AXES
 62
7
  6
CONTINUOUS
 10
2.8252865306
 20
7.5441636259
 40
0.0725
  0
CIRCLE
  8
02___PRT_ALL_AXES
 62
7
  6
CONTINUOUS
 10
2.8252865306
 20
6.5698850467
 40
0.0725
  0
CIRCLE
  8
02___PRT_ALL_AXES
 62
7
  6
CONTINUOUS
 10
4.1571349558
 20
7.0570243363
 40
0.053
  0
ARC
  8
0
 62
7
  6
CONTINUOUS
 10
5.2321349558
 20
9.1820243363
 40
0.5
 50
90.0
 51
180.0
  0
CIRCLE
  8
02___PRT_ALL_AXES
 62
7
  6
CONTINUOUS
 10
5.7321349558
 20
8.6314259111
 40
0.435
  0
CIRCLE
  8
02___PRT_ALL_AXES
 62
7
  6
CONTINUOUS
 10
3.9190365306
 20
8.0570243363
 40
0.16
  0
CIRCLE
  8
02___PRT_ALL_AXES
 62
7
  6
CONTINUOUS
 10
0.7144184203
 20
8.0040715804
 40
0.078
  0
CIRCLE
  8
02___PRT_ALL_AXES
 62
7
  6
CONTINUOUS
 10
2.5703239321
 20
8.0040715804
 40
0.078
  0
CIRCLE
  8
02___PRT_ALL_AXES
 62
7
  6
CONTINUOUS
 10
5.7321349558
 20
9.1939259111
 40
0.0725
  0
CIRCLE
  8
02___PRT_ALL_AXES
 62
7
  6
CONTINUOUS
 10
5.2449956661
 20
8.3501759111
 40
0.0725
  0
CIRCLE
  8
02___PRT_ALL_AXES
 62
7
  6
CONTINUOUS
 10
1.0321349558
 20
8.3217881158
 40
0.0625
  0
CIRCLE
  8
02___PRT_ALL_AXES
 62
7
  6
CONTINUOUS
 10
1.0321349558
 20
9.5422605568
 40
0.0625
  0
CIRCLE
  8
02___PRT_ALL_AXES
 62
7
  6
CONTINUOUS
 10
2.2526073967
 20
9.5422605568
 40
0.0625
  0
CIRCLE
  8
02___PRT_ALL_AXES
 62
7
  6
CONTINUOUS
 10
2.2526073967
 20
8.3217881158
 40
0.0625
  0
CIRCLE
  8
02___PRT_ALL_AXES
 62
7
  6
CONTINUOUS
 10
5.7321349558
 20
9.4945243363
 40
0.053
  0
ARC
  8
0
 62
7
  6
CONTINUOUS
 10
10.8821349558
 20
6.3070243363
 40
0.25
 50
270.0
 51
360.0
  0
ARC
  8
0
 62
7
  6
CONTINUOUS
 10
9.3821349558
 20
6.3070243363
 40
0.25
 50
180.0
 51
270.0
  0
ARC
  8
0
 62
7
  6
CONTINUOUS
 10
8.6821349558
 20
6.3070243363
 40
0.25
 50
270.0
 51
360.0
  0
ARC
  8
0
 62
7
  6
CONTINUOUS
 10
7.1821349558
 20
6.3070243363
 40
0.25
 50
180.0
 51
270.0
  0
ARC
  8
0
 62
7
  6
CONTINUOUS
 10
6.4821349558
 20
6.3070243363
 40
0.25
 50
270.0
 51
360.0
  0
CIRCLE
  8
02___PRT_ALL_AXES
 62
7
  6
CONTINUOUS
 10
9.5071349558
 20
6.4504259111
 40
0.117
  0
CIRCLE
  8
02___PRT_ALL_AXES
 62
7
  6
CONTINUOUS
 10
9.5071349558
 20
7.2384259111
 40
0.117
  0
CIRCLE
  8
02___PRT_ALL_AXES
 62
7
  6
CONTINUOUS
 10
10.7571349558
 20
6.4504259111
 40
0.117
  0
CIRCLE
  8
02___PRT_ALL_AXES
 62
7
  6
CONTINUOUS
 10
10.7571349558
 20
7.2384259111
 40
0.117
  0
CIRCLE
  8
02___PRT_ALL_AXES
 62
7
  6
CONTINUOUS
 10
7.3071349558
 20
6.4504259111
 40
0.117
  0
CIRCLE
  8
02___PRT_ALL_AXES
 62
7
  6
CONTINUOUS
 10
7.3071349558
 20
7.2384259111
 40
0.117
  0
CIRCLE
  8
02___PRT_ALL_AXES
 62
7
  6
CONTINUOUS
 10
8.5571349558
 20
6.4504259111
 40
0.117
  0
CIRCLE
  8
02___PRT_ALL_AXES
 62
7
  6
CONTINUOUS
 10
8.5571349558
 20
7.2384259111
 40
0.117
  0
CIRCLE
  8
02___PRT_ALL_AXES
 62
7
  6
CONTINUOUS
 10
6.3571349558
 20
6.4504259111
 40
0.117
  0
CIRCLE
  8
02___PRT_ALL_AXES
 62
7
  6
CONTINUOUS
 10
6.3571349558
 20
7.2384259111
 40
0.117
  0
ARC
  8
0
 62
7
  6
CONTINUOUS
 10
9.6321349558
 20
9.1820243363
 40
0.5
 50
90.0
 51
180.0
  0
ARC
  8
0
 62
7
  6
CONTINUOUS
 10
10.6321349558
 20
9.1820243363
 40
0.5
 50
0.0
 51
90.0
  0
ARC
  8
0
 62
7
  6
CONTINUOUS
 10
7.4321349558
 20
9.1820243363
 40
0.5
 50
90.0
 51
180.0
  0
ARC
  8
0
 62
7
  6
CONTINUOUS
 10
8.4321349558
 20
9.1820243363
 40
0.5
 50
0.0
 51
90.0
  0
ARC
  8
0
 62
7
  6
CONTINUOUS
 10
6.2321349558
 20
9.1820243363
 40
0.5
 50
0.0
 51
90.0
  0
CIRCLE
  8
02___PRT_ALL_AXES
 62
7
  6
CONTINUOUS
 10
10.1321349558
 20
8.6314259111
 40
0.435
  0
CIRCLE
  8
02___PRT_ALL_AXES
 62
7
  6
CONTINUOUS
 10
7.9321349558
 20
8.6314259111
 40
0.435
  0
CIRCLE
  8
02___PRT_ALL_AXES
 62
7
  6
CONTINUOUS
 10
10.1321349558
 20
9.1939259111
 40
0.0725
  0
CIRCLE
  8
02___PRT_ALL_AXES
 62
7
  6
CONTINUOUS
 10
10.6192742454
 20
8.3501759111
 40
0.0725
  0
CIRCLE
  8
02___PRT_ALL_AXES
 62
7
  6
CONTINUOUS
 10
9.6449956661
 20
8.3501759111
 40
0.0725
  0
CIRCLE
  8
02___PRT_ALL_AXES
 62
7
  6
CONTINUOUS
 10
7.9321349558
 20
9.1939259111
 40
0.0725
  0
CIRCLE
  8
02___PRT_ALL_AXES
 62
7
  6
CONTINUOUS
 10
8.4192742454
 20
8.3501759111
 40
0.0725
  0
CIRCLE
  8
02___PRT_ALL_AXES
 62
7
  6
CONTINUOUS
 10
7.4449956661
 20
8.3501759111
 40
0.0725
  0
CIRCLE
  8
02___PRT_ALL_AXES
 62
7
  6
CONTINUOUS
 10
6.2192742454
 20
8.3501759111
 40
0.0725
  0
CIRCLE
  8
02___PRT_ALL_AXES
 62
7
  6
CONTINUOUS
 10
10.1321349558
 20
9.4945243363
 40
0.053
  0
CIRCLE
  8
02___PRT_ALL_AXES
 62
7
  6
CONTINUOUS
 10
7.9321349558
 20
9.4945243363
 40
0.053
  0
ARC
  8
0
 62
7
  6
CONTINUOUS
 10
4.0321349558
 20
10.0570243363
 40
0.5
 50
0.0
 51
90.0
  0
ARC
  8
0
 62
7
  6
CONTINUOUS
 10
4.9821349558
 20
10.1320243363
 40
0.25
 50
180.0
 51
270.0
  0
ARC
  8
0
 62
7
  6
CONTINUOUS
 10
3.7821349558
 20
11.0070243363
 40
0.25
 50
270.0
 51
360.0
  0
ARC
  8
0
 62
7
  6
CONTINUOUS
 10
0.7821349558
 20
11.0070243363
 40
0.25
 50
180.0
 51
270.0
  0
ARC
  8
0
 62
7
  6
CONTINUOUS
 10
0.7821349558
 20
10.3070243363
 40
0.25
 50
90.0
 51
180.0
  0
CIRCLE
  8
02___PRT_ALL_AXES
 62
7
  6
CONTINUOUS
 10
3.9190365306
 20
9.8070243363
 40
0.16
  0
ARC
  8
0
 62
7
  6
CONTINUOUS
 10
5.4271349558
 20
10.6320243363
 40
0.1175
 50
270.0
 51
90.0
  0
ARC
  8
0
 62
7
  6
CONTINUOUS
 10
5.0371349558
 20
10.6320243363
 40
0.1175
 50
90.0
 51
270.0
  0
ARC
  8
0
 62
7
  6
CONTINUOUS
 10
3.2821349558
 20
11.4520243363
 40
0.1175
 50
0.0
 51
180.0
  0
ARC
  8
0
 62
7
  6
CONTINUOUS
 10
3.2821349558
 20
11.0620243363
 40
0.1175
 50
180.0
 51
360.0
  0
ARC
  8
0
 62
7
  6
CONTINUOUS
 10
1.2821349558
 20
11.4520243363
 40
0.1175
 50
0.0
 51
180.0
  0
ARC
  8
0
 62
7
  6
CONTINUOUS
 10
1.2821349558
 20
11.0620243363
 40
0.1175
 50
180.0
 51
360.0
  0
CIRCLE
  8
02___PRT_ALL_AXES
 62
7
  6
CONTINUOUS
 10
0.9255365306
 20
10.3070243363
 40
0.117
  0
CIRCLE
  8
02___PRT_ALL_AXES
 62
7
  6
CONTINUOUS
 10
1.7135365306
 20
10.3070243363
 40
0.117
  0
CIRCLE
  8
02___PRT_ALL_AXES
 62
7
  6
CONTINUOUS
 10
2.5703239321
 20
9.8599770922
 40
0.078
  0
CIRCLE
  8
02___PRT_ALL_AXES
 62
7
  6
CONTINUOUS
 10
0.7144184203
 20
9.8599770922
 40
0.078
  0
ARC
  8
0
 62
7
  6
CONTINUOUS
 10
1.2821349558
 20
12.6570243363
 40
0.75
 50
90.0
 51
180.0
  0
ARC
  8
0
 62
7
  6
CONTINUOUS
 10
3.2821349558
 20
12.6570243363
 40
0.75
 50
0.0
 51
90.0
  0
ARC
  8
0
 62
7
  6
CONTINUOUS
 10
4.9821349558
 20
13.1320243363
 40
0.25
 50
90.0
 51
180.0
  0
ARC
  8
0
 62
7
  6
CONTINUOUS
 10
3.1571349558
 20
12.6570243363
 40
0.225
 50
127.8309168959
 51
192.3177659828
  0
ARC
  8
0
 62
7
  6
CONTINUOUS
 10
3.1571349558
 20
12.6570243363
 40
0.225
 50
217.8309168959
 51
282.3177659828
  0
ARC
  8
0
 62
7
  6
CONTINUOUS
 10
3.1571349558
 20
12.6570243363
 40
0.225
 50
37.8309168959
 51
102.3177659828
  0
ARC
  8
0
 62
7
  6
CONTINUOUS
 10
3.1571349558
 20
12.6570243363
 40
0.225
 50
307.8309168959
 51
12.3177659828
  0
ARC
  8
0
 62
7
  6
CONTINUOUS
 10
1.4071349558
 20
12.6570243363
 40
0.225
 50
347.6822340172
 51
52.1690831041
  0
ARC
  8
0
 62
7
  6
CONTINUOUS
 10
1.4071349558
 20
12.6570243363
 40
0.225
 50
257.6822340172
 51
322.1690831041
  0
ARC
  8
0
 62
7
  6
CONTINUOUS
 10
1.4071349558
 20
12.6570243363
 40
0.225
 50
77.6822340172
 51
142.1690831041
  0
ARC
  8
0
 62
7
  6
CONTINUOUS
 10
1.4071349558
 20
12.6570243363
 40
0.225
 50
167.6822340172
 51
232.1690831041
  0
ARC
  8
0
 62
7
  6
CONTINUOUS
 10
5.4271349558
 20
12.6320243363
 40
0.1175
 50
270.0
 51
90.0
  0
ARC
  8
0
 62
7
  6
CONTINUOUS
 10
5.0371349558
 20
12.6320243363
 40
0.1175
 50
90.0
 51
270.0
  0
ARC
  8
0
 62
7
  6
CONTINUOUS
 10
3.0641349558
 20
13.1070243363
 40
0.045
 50
0.0
 51
180.0
  0
ARC
  8
0
 62
7
  6
CONTINUOUS
 10
2.7071349558
 20
12.5640243363
 40
0.045
 50
90.0
 51
270.0
  0
ARC
  8
0
 62
7
  6
CONTINUOUS
 10
3.2501349558
 20
12.2070243363
 40
0.045
 50
180.0
 51
360.0
  0
ARC
  8
0
 62
7
  6
CONTINUOUS
 10
3.6071349558
 20
12.7500243363
 40
0.045
 50
270.0
 51
90.0
  0
ARC
  8
0
 62
7
  6
CONTINUOUS
 10
0.9571349558
 20
12.7500243363
 40
0.045
 50
90.0
 51
270.0
  0
ARC
  8
0
 62
7
  6
CONTINUOUS
 10
1.3141349558
 20
12.2070243363
 40
0.045
 50
180.0
 51
360.0
  0
ARC
  8
0
 62
7
  6
CONTINUOUS
 10
1.8571349558
 20
12.5640243363
 40
0.045
 50
270.0
 51
90.0
  0
ARC
  8
0
 62
7
  6
CONTINUOUS
 10
1.5001349558
 20
13.1070243363
 40
0.045
 50
0.0
 51
180.0
  0
ARC
  8
0
 62
7
  6
CONTINUOUS
 10
9.4821349558
 20
10.6320243363
 40
0.75
 50
270.0
 51
360.0
  0
ARC
  8
0
 62
7
  6
CONTINUOUS
 10
6.6321349558
 20
10.6320243363
 40
0.75
 50
270.0
 51
360.0
  0
ARC
  8
0
 62
7
  6
CONTINUOUS
 10
10.6821349558
 20
10.1320243363
 40
0.25
 50
180.0
 51
270.0
  0
ARC
  8
0
 62
7
  6
CONTINUOUS
 10
7.8321349558
 20
10.1320243363
 40
0.25
 50
180.0
 51
270.0
  0
ARC
  8
0
 62
7
  6
CONTINUOUS
 10
9.4821349558
 20
10.7570243363
 40
0.225
 50
37.8309168959
 51
102.3177659828
  0
ARC
  8
0
 62
7
  6
CONTINUOUS
 10
9.4821349558
 20
10.7570243363
 40
0.225
 50
127.8309168959
 51
192.3177659828
  0
ARC
  8
0
 62
7
  6
CONTINUOUS
 10
9.4821349558
 20
10.7570243363
 40
0.225
 50
307.8309168959
 51
12.3177659828
  0
ARC
  8
0
 62
7
  6
CONTINUOUS
 10
9.4821349558
 20
10.7570243363
 40
0.225
 50
217.8309168959
 51
282.3177659828
  0
ARC
  8
0
 62
7
  6
CONTINUOUS
 10
6.6321349558
 20
10.7570243363
 40
0.225
 50
37.8309168959
 51
102.3177659828
  0
ARC
  8
0
 62
7
  6
CONTINUOUS
 10
6.6321349558
 20
10.7570243363
 40
0.225
 50
127.8309168959
 51
192.3177659828
  0
ARC
  8
0
 62
7
  6
CONTINUOUS
 10
6.6321349558
 20
10.7570243363
 40
0.225
 50
307.8309168959
 51
12.3177659828
  0
ARC
  8
0
 62
7
  6
CONTINUOUS
 10
6.6321349558
 20
10.7570243363
 40
0.225
 50
217.8309168959
 51
282.3177659828
  0
ARC
  8
0
 62
7
  6
CONTINUOUS
 10
10.7371349558
 20
10.6320243363
 40
0.1175
 50
90.0
 51
270.0
  0
ARC
  8
0
 62
7
  6
CONTINUOUS
 10
8.2771349558
 20
10.6320243363
 40
0.1175
 50
270.0
 51
90.0
  0
ARC
  8
0
 62
7
  6
CONTINUOUS
 10
7.8871349558
 20
10.6320243363
 40
0.1175
 50
90.0
 51
270.0
  0
ARC
  8
0
 62
7
  6
CONTINUOUS
 10
9.9321349558
 20
10.8500243363
 40
0.045
 50
270.0
 51
90.0
  0
ARC
  8
0
 62
7
  6
CONTINUOUS
 10
9.3891349558
 20
11.2070243363
 40
0.045
 50
0.0
 51
180.0
  0
ARC
  8
0
 62
7
  6
CONTINUOUS
 10
9.0321349558
 20
10.6640243363
 40
0.045
 50
90.0
 51
270.0
  0
ARC
  8
0
 62
7
  6
CONTINUOUS
 10
9.5751349558
 20
10.3070243363
 40
0.045
 50
180.0
 51
360.0
  0
ARC
  8
0
 62
7
  6
CONTINUOUS
 10
7.0821349558
 20
10.8500243363
 40
0.045
 50
270.0
 51
90.0
  0
ARC
  8
0
 62
7
  6
CONTINUOUS
 10
6.5391349558
 20
11.2070243363
 40
0.045
 50
0.0
 51
180.0
  0
ARC
  8
0
 62
7
  6
CONTINUOUS
 10
6.1821349558
 20
10.6640243363
 40
0.045
 50
90.0
 51
270.0
  0
ARC
  8
0
 62
7
  6
CONTINUOUS
 10
6.7251349558
 20
10.3070243363
 40
0.045
 50
180.0
 51
360.0
  0
ARC
  8
0
 62
7
  6
CONTINUOUS
 10
9.4821349558
 20
12.6320243363
 40
0.75
 50
0.0
 51
90.0
  0
ARC
  8
0
 62
7
  6
CONTINUOUS
 10
6.6321349558
 20
12.6320243363
 40
0.75
 50
0.0
 51
90.0
  0
ARC
  8
0
 62
7
  6
CONTINUOUS
 10
10.6821349558
 20
13.1320243363
 40
0.25
 50
90.0
 51
180.0
  0
ARC
  8
0
 62
7
  6
CONTINUOUS
 10
7.8321349558
 20
13.1320243363
 40
0.25
 50
90.0
 51
180.0
  0
ARC
  8
0
 62
7
  6
CONTINUOUS
 10
9.4821349558
 20
12.5070243363
 40
0.225
 50
257.6822340172
 51
322.1690831041
  0
ARC
  8
0
 62
7
  6
CONTINUOUS
 10
9.4821349558
 20
12.5070243363
 40
0.225
 50
167.6822340172
 51
232.1690831041
  0
ARC
  8
0
 62
7
  6
CONTINUOUS
 10
9.4821349558
 20
12.5070243363
 40
0.225
 50
347.6822340172
 51
52.1690831041
  0
ARC
  8
0
 62
7
  6
CONTINUOUS
 10
9.4821349558
 20
12.5070243363
 40
0.225
 50
77.6822340172
 51
142.1690831041
  0
ARC
  8
0
 62
7
  6
CONTINUOUS
 10
6.6321349558
 20
12.5070243363
 40
0.225
 50
257.6822340172
 51
322.1690831041
  0
ARC
  8
0
 62
7
  6
CONTINUOUS
 10
6.6321349558
 20
12.5070243363
 40
0.225
 50
167.6822340172
 51
232.1690831041
  0
ARC
  8
0
 62
7
  6
CONTINUOUS
 10
6.6321349558
 20
12.5070243363
 40
0.225
 50
347.6822340172
 51
52.1690831041
  0
ARC
  8
0
 62
7
  6
CONTINUOUS
 10
6.6321349558
 20
12.5070243363
 40
0.225
 50
77.6822340172
 51
142.1690831041
  0
ARC
  8
0
 62
7
  6
CONTINUOUS
 10
10.7371349558
 20
12.6320243363
 40
0.1175
 50
90.0
 51
270.0
  0
ARC
  8
0
 62
7
  6
CONTINUOUS
 10
8.2771349558
 20
12.6320243363
 40
0.1175
 50
270.0
 51
90.0
  0
ARC
  8
0
 62
7
  6
CONTINUOUS
 10
7.8871349558
 20
12.6320243363
 40
0.1175
 50
90.0
 51
270.0
  0
ARC
  8
0
 62
7
  6
CONTINUOUS
 10
9.5751349558
 20
12.9570243363
 40
0.045
 50
0.0
 51
180.0
  0
ARC
  8
0
 62
7
  6
CONTINUOUS
 10
9.0321349558
 20
12.6000243363
 40
0.045
 50
90.0
 51
270.0
  0
ARC
  8
0
 62
7
  6
CONTINUOUS
 10
9.3891349558
 20
12.0570243363
 40
0.045
 50
180.0
 51
360.0
  0
ARC
  8
0
 62
7
  6
CONTINUOUS
 10
9.9321349558
 20
12.4140243363
 40
0.045
 50
270.0
 51
90.0
  0
ARC
  8
0
 62
7
  6
CONTINUOUS
 10
6.7251349558
 20
12.9570243363
 40
0.045
 50
0.0
 51
180.0
  0
ARC
  8
0
 62
7
  6
CONTINUOUS
 10
6.1821349558
 20
12.6000243363
 40
0.045
 50
90.0
 51
270.0
  0
ARC
  8
0
 62
7
  6
CONTINUOUS
 10
6.5391349558
 20
12.0570243363
 40
0.045
 50
180.0
 51
360.0
  0
ARC
  8
0
 62
7
  6
CONTINUOUS
 10
7.0821349558
 20
12.4140243363
 40
0.045
 50
270.0
 51
90.0
  0
ARC
  8
0
 62
7
  6
CONTINUOUS
 10
11.5821349558
 20
6.3070243363
 40
0.25
 50
180.0
 51
270.0
  0
ARC
  8
0
 62
7
  6
CONTINUOUS
 10
12.5821349558
 20
6.3070243363
 40
0.25
 50
270.0
 51
360.0
  0
ARC
  8
0
 62
7
  6
CONTINUOUS
 10
15.4821349558
 20
6.3070243363
 40
0.25
 50
180.0
 51
270.0
  0
ARC
  8
0
 62
7
  6
CONTINUOUS
 10
14.7821349558
 20
6.3070243363
 40
0.25
 50
270.0
 51
360.0
  0
ARC
  8
0
 62
7
  6
CONTINUOUS
 10
13.2821349558
 20
6.3070243363
 40
0.25
 50
180.0
 51
270.0
  0
CIRCLE
  8
02___PRT_ALL_AXES
 62
7
  6
CONTINUOUS
 10
15.6071349558
 20
6.4504259111
 40
0.125
  0
CIRCLE
  8
02___PRT_ALL_AXES
 62
7
  6
CONTINUOUS
 10
15.6071349558
 20
7.2384259111
 40
0.125
  0
CIRCLE
  8
02___PRT_ALL_AXES
 62
7
  6
CONTINUOUS
 10
13.4071349558
 20
6.4504259111
 40
0.125
  0
CIRCLE
  8
02___PRT_ALL_AXES
 62
7
  6
CONTINUOUS
 10
13.4071349558
 20
7.2384259111
 40
0.125
  0
CIRCLE
  8
02___PRT_ALL_AXES
 62
7
  6
CONTINUOUS
 10
14.6571349558
 20
6.4504259111
 40
0.125
  0
CIRCLE
  8
02___PRT_ALL_AXES
 62
7
  6
CONTINUOUS
 10
14.6571349558
 20
7.2384259111
 40
0.125
  0
ARC
  8
0
 62
7
  6
CONTINUOUS
 10
12.5821349558
 20
7.0613274859
 40
0.117
 50
180.0
 51
360.0
  0
ARC
  8
0
 62
7
  6
CONTINUOUS
 10
12.5821349558
 20
7.4523274859
 40
0.117
 50
0.0
 51
180.0
  0
ARC
  8
0
 62
7
  6
CONTINUOUS
 10
11.5821349558
 20
6.2739259111
 40
0.117
 50
180.0
 51
360.0
  0
ARC
  8
0
 62
7
  6
CONTINUOUS
 10
11.5821349558
 20
6.6649259111
 40
0.117
 50
0.0
 51
180.0
  0
ARC
  8
0
 62
7
  6
CONTINUOUS
 10
16.2321349558
 20
8.3818243363
 40
1.0
 50
0.0
 51
180.0
  0
ARC
  8
0
 62
7
  6
CONTINUOUS
 10
14.0321349558
 20
8.3818243363
 40
1.0
 50
0.0
 51
180.0
  0
CIRCLE
  8
02___PRT_ALL_AXES
 62
7
  6
CONTINUOUS
 10
16.2321349558
 20
8.6314259111
 40
0.435
  0
CIRCLE
  8
02___PRT_ALL_AXES
 62
7
  6
CONTINUOUS
 10
14.0321349558
 20
8.6314259111
 40
0.435
  0
ARC
  8
0
 62
7
  6
CONTINUOUS
 10
12.5821349558
 20
8.9320243363
 40
0.25
 50
0.0
 51
90.0
  0
ARC
  8
0
 62
7
  6
CONTINUOUS
 10
11.5821349558
 20
8.9320243363
 40
0.25
 50
90.0
 51
180.0
  0
CIRCLE
  8
02___PRT_ALL_AXES
 62
7
  6
CONTINUOUS
 10
12.0821349558
 20
8.8444259111
 40
0.1615
  0
CIRCLE
  8
02___PRT_ALL_AXES
 62
7
  6
CONTINUOUS
 10
16.2321349558
 20
9.1939259111
 40
0.0725
  0
CIRCLE
  8
02___PRT_ALL_AXES
 62
7
  6
CONTINUOUS
 10
15.7449956661
 20
8.3501759111
 40
0.0725
  0
CIRCLE
  8
02___PRT_ALL_AXES
 62
7
  6
CONTINUOUS
 10
14.0321349558
 20
9.1939259111
 40
0.0725
  0
CIRCLE
  8
02___PRT_ALL_AXES
 62
7
  6
CONTINUOUS
 10
14.5192742454
 20
8.3501759111
 40
0.0725
  0
CIRCLE
  8
02___PRT_ALL_AXES
 62
7
  6
CONTINUOUS
 10
13.5449956661
 20
8.3501759111
 40
0.0725
  0
ARC
  8
0
 62
7
  6
CONTINUOUS
 10
21.3821349558
 20
6.3070243363
 40
0.25
 50
270.0
 51
360.0
  0
ARC
  8
0
 62
7
  6
CONTINUOUS
 10
19.8821349558
 20
6.3070243363
 40
0.25
 50
180.0
 51
270.0
  0
ARC
  8
0
 62
7
  6
CONTINUOUS
 10
19.1821349558
 20
6.3070243363
 40
0.25
 50
270.0
 51
360.0
  0
ARC
  8
0
 62
7
  6
CONTINUOUS
 10
17.6821349558
 20
6.3070243363
 40
0.25
 50
180.0
 51
270.0
  0
ARC
  8
0
 62
7
  6
CONTINUOUS
 10
16.9821349558
 20
6.3070243363
 40
0.25
 50
270.0
 51
360.0
  0
CIRCLE
  8
02___PRT_ALL_AXES
 62
7
  6
CONTINUOUS
 10
20.0071349558
 20
6.4504259111
 40
0.125
  0
CIRCLE
  8
02___PRT_ALL_AXES
 62
7
  6
CONTINUOUS
 10
20.0071349558
 20
7.2384259111
 40
0.125
  0
CIRCLE
  8
02___PRT_ALL_AXES
 62
7
  6
CONTINUOUS
 10
21.2571349558
 20
6.4504259111
 40
0.125
  0
CIRCLE
  8
02___PRT_ALL_AXES
 62
7
  6
CONTINUOUS
 10
21.2571349558
 20
7.2384259111
 40
0.125
  0
CIRCLE
  8
02___PRT_ALL_AXES
 62
7
  6
CONTINUOUS
 10
17.8071349558
 20
6.4504259111
 40
0.125
  0
CIRCLE
  8
02___PRT_ALL_AXES
 62
7
  6
CONTINUOUS
 10
17.8071349558
 20
7.2384259111
 40
0.125
  0
CIRCLE
  8
02___PRT_ALL_AXES
 62
7
  6
CONTINUOUS
 10
19.0571349558
 20
6.4504259111
 40
0.125
  0
CIRCLE
  8
02___PRT_ALL_AXES
 62
7
  6
CONTINUOUS
 10
19.0571349558
 20
7.2384259111
 40
0.125
  0
CIRCLE
  8
02___PRT_ALL_AXES
 62
7
  6
CONTINUOUS
 10
16.8571349558
 20
6.4504259111
 40
0.125
  0
CIRCLE
  8
02___PRT_ALL_AXES
 62
7
  6
CONTINUOUS
 10
16.8571349558
 20
7.2384259111
 40
0.125
  0
ARC
  8
0
 62
7
  6
CONTINUOUS
 10
20.6321349558
 20
8.3818243363
 40
1.0
 50
0.0
 51
180.0
  0
ARC
  8
0
 62
7
  6
CONTINUOUS
 10
18.4321349558
 20
8.3818243363
 40
1.0
 50
0.0
 51
180.0
  0
CIRCLE
  8
02___PRT_ALL_AXES
 62
7
  6
CONTINUOUS
 10
20.6321349558
 20
8.6314259111
 40
0.435
  0
CIRCLE
  8
02___PRT_ALL_AXES
 62
7
  6
CONTINUOUS
 10
18.4321349558
 20
8.6314259111
 40
0.435
  0
CIRCLE
  8
02___PRT_ALL_AXES
 62
7
  6
CONTINUOUS
 10
20.6321349558
 20
9.1939259111
 40
0.0725
  0
CIRCLE
  8
02___PRT_ALL_AXES
 62
7
  6
CONTINUOUS
 10
21.1192742454
 20
8.3501759111
 40
0.0725
  0
CIRCLE
  8
02___PRT_ALL_AXES
 62
7
  6
CONTINUOUS
 10
20.1449956661
 20
8.3501759111
 40
0.0725
  0
CIRCLE
  8
02___PRT_ALL_AXES
 62
7
  6
CONTINUOUS
 10
18.4321349558
 20
9.1939259111
 40
0.0725
  0
CIRCLE
  8
02___PRT_ALL_AXES
 62
7
  6
CONTINUOUS
 10
18.9192742454
 20
8.3501759111
 40
0.0725
  0
CIRCLE
  8
02___PRT_ALL_AXES
 62
7
  6
CONTINUOUS
 10
17.9449956661
 20
8.3501759111
 40
0.0725
  0
CIRCLE
  8
02___PRT_ALL_AXES
 62
7
  6
CONTINUOUS
 10
16.7192742454
 20
8.3501759111
 40
0.0725
  0
CIRCLE
  8
02___PRT_ALL_AXES
 62
7
  6
CONTINUOUS
 10
14.0821349558
 20
10.4070243363
 40
0.75
  0
ARC
  8
0
 62
7
  6
CONTINUOUS
 10
12.5821349558
 20
10.3820243363
 40
0.5
 50
270.0
 51
360.0
  0
CIRCLE
  8
02___PRT_ALL_AXES
 62
7
  6
CONTINUOUS
 10
14.0821349558
 20
10.4070243363
 40
0.375
  0
ARC
  8
0
 62
7
  6
CONTINUOUS
 10
12.3321349558
 20
10.7570243363
 40
0.225
 50
167.4866746371
 51
231.9268766771
  0
ARC
  8
0
 62
7
  6
CONTINUOUS
 10
12.3321349558
 20
10.7570243363
 40
0.225
 50
347.4866746371
 51
51.9268766771
  0
ARC
  8
0
 62
7
  6
CONTINUOUS
 10
12.3321349558
 20
10.7570243363
 40
0.225
 50
257.4866746371
 51
321.9268766771
  0
ARC
  8
0
 62
7
  6
CONTINUOUS
 10
12.3321349558
 20
10.7570243363
 40
0.225
 50
77.4866746371
 51
141.9268766771
  0
ARC
  8
0
 62
7
  6
CONTINUOUS
 10
12.9571349558
 20
11.3195243363
 40
0.125
 50
0.0
 51
90.0
  0
ARC
  8
0
 62
7
  6
CONTINUOUS
 10
11.1271349558
 20
10.6320243363
 40
0.1175
 50
270.0
 51
90.0
  0
CIRCLE
  8
02___PRT_ALL_AXES
 62
7
  6
CONTINUOUS
 10
15.2949956661
 20
10.1257743363
 40
0.053
  0
CIRCLE
  8
02___PRT_ALL_AXES
 62
7
  6
CONTINUOUS
 10
14.0821349558
 20
10.9695243363
 40
0.053
  0
CIRCLE
  8
02___PRT_ALL_AXES
 62
7
  6
CONTINUOUS
 10
13.5949956661
 20
10.1257743363
 40
0.053
  0
CIRCLE
  8
02___PRT_ALL_AXES
 62
7
  6
CONTINUOUS
 10
14.5692742454
 20
10.1257743363
 40
0.053
  0
ARC
  8
0
 62
7
  6
CONTINUOUS
 10
12.7821349558
 20
10.6632743363
 40
0.045
 50
270.0
 51
90.0
  0
ARC
  8
0
 62
7
  6
CONTINUOUS
 10
12.2383849558
 20
10.3070243363
 40
0.045
 50
180.0
 51
360.0
  0
ARC
  8
0
 62
7
  6
CONTINUOUS
 10
11.8821349558
 20
10.8507743363
 40
0.045
 50
90.0
 51
270.0
  0
ARC
  8
0
 62
7
  6
CONTINUOUS
 10
12.4258849558
 20
11.2070243363
 40
0.045
 50
0.0
 51
180.0
  0
CIRCLE
  8
02___PRT_ALL_AXES
 62
7
  6
CONTINUOUS
 10
14.0821349558
 20
12.1070243363
 40
0.75
  0
ARC
  8
0
 62
7
  6
CONTINUOUS
 10
12.0821349558
 20
12.8820243363
 40
0.5
 50
0.0
 51
90.0
  0
CIRCLE
  8
02___PRT_ALL_AXES
 62
7
  6
CONTINUOUS
 10
14.0821349558
 20
12.1070243363
 40
0.375
  0
ARC
  8
0
 62
7
  6
CONTINUOUS
 10
12.8321349558
 20
11.6945243363
 40
0.25
 50
180.0
 51
270.0
  0
ARC
  8
0
 62
7
  6
CONTINUOUS
 10
11.1271349558
 20
12.6320243363
 40
0.1175
 50
270.0
 51
90.0
  0
CIRCLE
  8
02___PRT_ALL_AXES
 62
7
  6
CONTINUOUS
 10
15.2949956661
 20
11.8257743363
 40
0.053
  0
CIRCLE
  8
02___PRT_ALL_AXES
 62
7
  6
CONTINUOUS
 10
14.0821349558
 20
12.6695243363
 40
0.053
  0
CIRCLE
  8
02___PRT_ALL_AXES
 62
7
  6
CONTINUOUS
 10
13.5949956661
 20
11.8257743363
 40
0.053
  0
CIRCLE
  8
02___PRT_ALL_AXES
 62
7
  6
CONTINUOUS
 10
14.5692742454
 20
11.8257743363
 40
0.053
  0
CIRCLE
  8
02___PRT_ALL_AXES
 62
7
  6
CONTINUOUS
 10
17.4821349558
 20
10.4070243363
 40
0.75
  0
CIRCLE
  8
02___PRT_ALL_AXES
 62
7
  6
CONTINUOUS
 10
15.7821349558
 20
10.4070243363
 40
0.75
  0
CIRCLE
  8
02___PRT_ALL_AXES
 62
7
  6
CONTINUOUS
 10
19.1821349558
 20
10.4070243363
 40
0.75
  0
CIRCLE
  8
02___PRT_ALL_AXES
 62
7
  6
CONTINUOUS
 10
17.4821349558
 20
10.4070243363
 40
0.375
  0
CIRCLE
  8
02___PRT_ALL_AXES
 62
7
  6
CONTINUOUS
 10
15.7821349558
 20
10.4070243363
 40
0.375
  0
CIRCLE
  8
02___PRT_ALL_AXES
 62
7
  6
CONTINUOUS
 10
19.1821349558
 20
10.4070243363
 40
0.375
  0
CIRCLE
  8
02___PRT_ALL_AXES
 62
7
  6
CONTINUOUS
 10
17.4821349558
 20
10.9695243363
 40
0.053
  0
CIRCLE
  8
02___PRT_ALL_AXES
 62
7
  6
CONTINUOUS
 10
16.9949956661
 20
10.1257743363
 40
0.053
  0
CIRCLE
  8
02___PRT_ALL_AXES
 62
7
  6
CONTINUOUS
 10
17.9692742454
 20
10.1257743363
 40
0.053
  0
CIRCLE
  8
02___PRT_ALL_AXES
 62
7
  6
CONTINUOUS
 10
15.7821349558
 20
10.9695243363
 40
0.053
  0
CIRCLE
  8
02___PRT_ALL_AXES
 62
7
  6
CONTINUOUS
 10
16.2692742454
 20
10.1257743363
 40
0.053
  0
CIRCLE
  8
02___PRT_ALL_AXES
 62
7
  6
CONTINUOUS
 10
19.1821349558
 20
10.9695243363
 40
0.053
  0
CIRCLE
  8
02___PRT_ALL_AXES
 62
7
  6
CONTINUOUS
 10
18.6949956661
 20
10.1257743363
 40
0.053
  0
CIRCLE
  8
02___PRT_ALL_AXES
 62
7
  6
CONTINUOUS
 10
19.6692742454
 20
10.1257743363
 40
0.053
  0
CIRCLE
  8
02___PRT_ALL_AXES
 62
7
  6
CONTINUOUS
 10
15.7821349558
 20
12.1070243363
 40
0.75
  0
CIRCLE
  8
02___PRT_ALL_AXES
 62
7
  6
CONTINUOUS
 10
17.4821349558
 20
12.1070243363
 40
0.75
  0
CIRCLE
  8
02___PRT_ALL_AXES
 62
7
  6
CONTINUOUS
 10
19.1821349558
 20
12.1070243363
 40
0.75
  0
CIRCLE
  8
02___PRT_ALL_AXES
 62
7
  6
CONTINUOUS
 10
15.7821349558
 20
12.1070243363
 40
0.375
  0
CIRCLE
  8
02___PRT_ALL_AXES
 62
7
  6
CONTINUOUS
 10
17.4821349558
 20
12.1070243363
 40
0.375
  0
CIRCLE
  8
02___PRT_ALL_AXES
 62
7
  6
CONTINUOUS
 10
19.1821349558
 20
12.1070243363
 40
0.375
  0
CIRCLE
  8
02___PRT_ALL_AXES
 62
7
  6
CONTINUOUS
 10
15.7821349558
 20
12.6695243363
 40
0.053
  0
CIRCLE
  8
02___PRT_ALL_AXES
 62
7
  6
CONTINUOUS
 10
16.2692742454
 20
11.8257743363
 40
0.053
  0
CIRCLE
  8
02___PRT_ALL_AXES
 62
7
  6
CONTINUOUS
 10
17.4821349558
 20
12.6695243363
 40
0.053
  0
CIRCLE
  8
02___PRT_ALL_AXES
 62
7
  6
CONTINUOUS
 10
16.9949956661
 20
11.8257743363
 40
0.053
  0
CIRCLE
  8
02___PRT_ALL_AXES
 62
7
  6
CONTINUOUS
 10
17.9692742454
 20
11.8257743363
 40
0.053
  0
CIRCLE
  8
02___PRT_ALL_AXES
 62
7
  6
CONTINUOUS
 10
19.1821349558
 20
12.6695243363
 40
0.053
  0
CIRCLE
  8
02___PRT_ALL_AXES
 62
7
  6
CONTINUOUS
 10
18.6949956661
 20
11.8257743363
 40
0.053
  0
CIRCLE
  8
02___PRT_ALL_AXES
 62
7
  6
CONTINUOUS
 10
19.6692742454
 20
11.8257743363
 40
0.053
  0
ENDSEC
  0
EOF
